<svg width="74" height="84" viewBox="0 0 74 84" fill="none" xmlns="http://www.w3.org/2000/svg">
<path fill-rule="evenodd" clip-rule="evenodd" d="M37.4005 83.91C41.3993 82.0208 74 65.7322 74 36.7917C74 16.4722 57.4345 0 37 0C16.5655 0 0 16.4722 0 36.7917C0 65.7322 32.6007 82.0208 36.5995 83.91C36.8558 84.031 37.1442 84.031 37.4005 83.91ZM37 52.5601C45.7576 52.5601 52.8571 45.5005 52.8571 36.7922C52.8571 28.0838 45.7576 21.0243 37 21.0243C28.2423 21.0243 21.1428 28.0838 21.1428 36.7922C21.1428 45.5005 28.2423 52.5601 37 52.5601Z" fill="#005142"/>
<ellipse cx="36.9975" cy="36.7923" rx="15.8571" ry="15.7679" fill="white"/>
</svg>
