<?xml version="1.0"?>
<svg xmlns="http://www.w3.org/2000/svg" xmlns:xlink="http://www.w3.org/1999/xlink" version="1.1" xml:space="preserve">
  <defs>
    <symbol id="email" width="100%" height="100%" viewBox="0 0 25 25">
      <path d="M14.8554 3.78247H10.4554C6.30707 3.78247 4.23289 3.78247 2.94416 5.10049C1.65543 6.41851 1.65543 8.53983 1.65543 12.7825C1.65543 17.0251 1.65543 19.1464 2.94416 20.4645C4.23289 21.7825 6.30707 21.7825 10.4554 21.7825H14.8554C19.0038 21.7825 21.078 21.7825 22.3667 20.4645C23.6554 19.1464 23.6554 17.0251 23.6554 12.7825C23.6554 8.53983 23.6554 6.41851 22.3667 5.10049C21.078 3.78247 19.0038 3.78247 14.8554 3.78247Z" fill="currentColor" />
      <path d="M19.7838 8.81647C20.1338 8.52478 20.1811 8.00456 19.8894 7.65453C19.5977 7.30451 19.0775 7.25721 18.7275 7.5489L16.3527 9.52789C15.3265 10.3831 14.6139 10.9749 14.0124 11.3618C13.4301 11.7363 13.0352 11.862 12.6556 11.862C12.2761 11.862 11.8812 11.7363 11.2989 11.3618C10.6973 10.9749 9.98484 10.3831 8.95858 9.52789L6.58379 7.5489C6.23377 7.25721 5.71355 7.30451 5.42186 7.65453C5.13017 8.00456 5.17746 8.52478 5.52749 8.81647L7.94363 10.8299C8.91862 11.6424 9.70887 12.301 10.4063 12.7496C11.1329 13.2169 11.8405 13.512 12.6556 13.512C13.4708 13.512 14.1784 13.2169 14.9049 12.7496C15.6024 12.301 16.3927 11.6424 17.3677 10.8299L19.7838 8.81647Z" fill="white" />
    </symbol>
    <symbol id="phone" width="100%" height="100%" viewBox="0 0 25 25">
      <path d="M10.693 6.09864L11.342 7.26157C11.9277 8.31105 11.6926 9.68779 10.7701 10.6103C10.7701 10.6103 10.7701 10.6103 10.7701 10.6103C10.77 10.6104 9.65131 11.7293 11.6799 13.758C13.7079 15.7859 14.8268 14.6686 14.8276 14.6678C14.8276 14.6677 14.8276 14.6678 14.8277 14.6677C15.7501 13.7453 17.1269 13.5102 18.1763 14.0959L19.3393 14.7449C20.924 15.6293 21.1111 17.8517 19.7182 19.2447C18.8812 20.0817 17.8558 20.7329 16.7223 20.7759C14.8142 20.8483 11.5737 20.3653 8.32313 17.1148C5.07255 13.8642 4.58964 10.6237 4.66198 8.71556C4.70495 7.58207 5.35623 6.55671 6.19323 5.7197C7.58618 4.32675 9.8086 4.51391 10.693 6.09864Z" fill="currentColor" />
      <path d="M13.9149 2.66255C13.9811 2.25366 14.3677 1.97628 14.7765 2.04248C14.8019 2.04732 14.8833 2.06254 14.926 2.07205C15.0113 2.09105 15.1303 2.12031 15.2787 2.16353C15.5755 2.24998 15.9901 2.39238 16.4877 2.62052C17.484 3.07727 18.8098 3.87628 20.1856 5.25208C21.5614 6.62788 22.3604 7.95369 22.8172 8.94997C23.0453 9.44758 23.1877 9.86219 23.2741 10.159C23.3174 10.3074 23.3466 10.4264 23.3656 10.5117C23.3751 10.5544 23.3821 10.5887 23.3869 10.614L23.3927 10.6452C23.4589 11.0541 23.184 11.4566 22.7751 11.5228C22.3674 11.5888 21.9833 11.3127 21.9155 10.9058C21.9134 10.8948 21.9077 10.8655 21.9015 10.8378C21.8892 10.7824 21.8678 10.6946 21.834 10.5784C21.7663 10.3461 21.6488 10.0008 21.4536 9.57509C21.0638 8.72479 20.3628 7.5506 19.1249 6.31274C17.8871 5.07488 16.7129 4.37388 15.8626 3.98405C15.4369 3.78889 15.0916 3.67136 14.8592 3.60369C14.7431 3.56986 14.5971 3.53634 14.5417 3.52401C14.1347 3.45619 13.8489 3.07027 13.9149 2.66255Z" fill="currentColor" />
      <path fill-rule="evenodd" clip-rule="evenodd" d="M14.1412 6.11201C14.255 5.71374 14.6701 5.48312 15.0683 5.59691L14.8623 6.31805C15.0683 5.59691 15.0683 5.59691 15.0683 5.59691L15.0698 5.59732L15.0713 5.59776L15.0747 5.59874L15.0824 5.60105L15.1022 5.60722C15.1173 5.61204 15.1361 5.61832 15.1585 5.62629C15.2035 5.64222 15.2628 5.66489 15.3356 5.69609C15.4813 5.75853 15.6804 5.85495 15.9249 5.99966C16.4144 6.28934 17.0825 6.77052 17.8675 7.55549C18.6525 8.34046 19.1337 9.00865 19.4233 9.49811C19.5681 9.74262 19.6645 9.94169 19.7269 10.0874C19.7581 10.1602 19.7808 10.2195 19.7967 10.2644C19.8047 10.2869 19.811 10.3057 19.8158 10.3208L19.8219 10.3406L19.8243 10.3483L19.8252 10.3517L19.8257 10.3532C19.8257 10.3532 19.8261 10.3547 19.1049 10.5607L19.8261 10.3547C19.9399 10.7529 19.7093 11.168 19.311 11.2818C18.9161 11.3947 18.5046 11.1689 18.3868 10.7768L18.3831 10.7661C18.3777 10.751 18.3667 10.7215 18.3482 10.6783C18.3112 10.5919 18.2441 10.4507 18.1325 10.2621C17.9095 9.88535 17.5068 9.3161 16.8068 8.61615C16.1069 7.9162 15.5376 7.51349 15.1609 7.29052C14.9723 7.17891 14.8311 7.11181 14.7447 7.07481C14.7015 7.05629 14.672 7.04526 14.6569 7.03993L14.6462 7.03623C14.2541 6.91835 14.0283 6.50691 14.1412 6.11201Z" fill="currentColor" />
    </symbol>
    <symbol id="menu" width="100%" height="100%" viewBox="0 0 24 24" fill="none">
      <path d="M20 7L4 7" stroke="currentColor" stroke-width="1.5" stroke-linecap="round" />
      <path d="M20 12L4 12" stroke="currentColor" stroke-width="1.5" stroke-linecap="round" />
      <path d="M20 17L4 17" stroke="currentColor" stroke-width="1.5" stroke-linecap="round" />
    </symbol>
    <symbol id="arrow-right" width="100%" height="100%" viewBox="0 0 15 10">
      <path d="M13 5L13.7071 4.29289L14.4142 5L13.7071 5.70711L13 5ZM1 6C0.447715 6 0 5.55228 0 5C0 4.44772 0.447715 4 1 4V6ZM9.70711 0.292893L13.7071 4.29289L12.2929 5.70711L8.29289 1.70711L9.70711 0.292893ZM13.7071 5.70711L9.70711 9.70711L8.29289 8.29289L12.2929 4.29289L13.7071 5.70711ZM13 6H1V4H13V6Z" fill="currentColor" />
    </symbol>
    <symbol id="arrow-left" width="100%" height="100%" viewBox="0 0 15 10">
      <path d="M2 5L1.29289 4.29289L0.585786 5L1.29289 5.70711L2 5ZM14 6C14.5523 6 15 5.55228 15 5C15 4.44772 14.5523 4 14 4V6ZM5.29289 0.292893L1.29289 4.29289L2.70711 5.70711L6.70711 1.70711L5.29289 0.292893ZM1.29289 5.70711L5.29289 9.70711L6.70711 8.29289L2.70711 4.29289L1.29289 5.70711ZM2 6H14V4H2V6Z" fill="currentColor" />
    </symbol>
    <symbol id="gal-ochka" width="100%" height="100%" viewBox="0 0 12 10">
      <path d="M6.23497 8.79946C5.9649 9.16602 5.54433 9.3913 5.0896 9.41369C4.63487 9.43632 4.19445 9.25304 3.88975 8.91464L1.15929 5.88456C0.725328 5.40328 0.763876 4.6614 1.24515 4.22744C1.72689 3.79348 2.46831 3.83226 2.90227 4.31377L4.83407 6.45771C4.8627 6.48956 4.90425 6.50664 4.94695 6.50456C4.98988 6.50249 5.02912 6.48102 5.05475 6.44686L9.02546 1.0614C9.40979 0.539728 10.1443 0.428699 10.6662 0.813259C11.1876 1.19782 11.2984 1.93232 10.9139 2.45376L6.23497 8.79946Z" fill="currentColor" />
    </symbol>
    <symbol id="to-right" width="100%" height="100%" viewBox="0 0 24 24" fill="none">
      <path d="M9 5L15 12L9 19" stroke="currentColor" stroke-width="2" stroke-linecap="round" stroke-linejoin="round" />
    </symbol>
    <symbol id="to-left" width="100%" height="100%" viewBox="0 0 8 14">
      <path d="M2.36337 7.00019L6.84852 2.51504C7.2065 2.15706 7.2065 1.57666 6.84852 1.21868C6.49054 0.8607 5.91014 0.8607 5.55216 1.21868L0.418823 6.35201C0.0608425 6.70999 0.0608425 7.29039 0.418823 7.64838L5.55216 12.7817C5.91014 13.1397 6.49054 13.1397 6.84852 12.7817C7.2065 12.4237 7.2065 11.8433 6.84852 11.4853L2.36337 7.00019Z" fill="currentColor" />
    </symbol>
    <symbol id="to-down" width="100%" height="100%" viewBox="0 0 17 16" fill="none">
      <path d="M12.9524 6L8.28572 10L3.61905 6" stroke="currentColor" stroke-width="1.5" stroke-linecap="round" stroke-linejoin="round" />
    </symbol>
    <symbol id="play" width="100%" height="100%" viewBox="0 0 32 38">
      <path d="M5.27275 38C4.93519 38 4.61146 37.8332 4.37278 37.5363C4.13409 37.2393 4 36.8366 4 36.4167V1.58307C4.00004 1.30794 4.05771 1.03756 4.16732 0.79859C4.27694 0.559623 4.43472 0.360315 4.62511 0.220312C4.81551 0.0803081 5.03194 0.00444103 5.25308 0.000189119C5.47422 -0.00406279 5.69243 0.0634472 5.88621 0.196064L31.3411 17.6129C31.5407 17.7495 31.7071 17.9503 31.823 18.1943C31.9389 18.4383 32 18.7165 32 18.9999C32 19.2833 31.9389 19.5615 31.823 19.8054C31.7071 20.0494 31.5407 20.2502 31.3411 20.3869L5.88621 37.8037C5.69829 37.9324 5.48727 37.9999 5.27275 38Z" fill="currentColor" />
    </symbol>
    <symbol id="cross" width="100%" height="100%" viewBox="0 0 16 16">
      <path d="M1 15L15 1M1 1L15 15" fill="none" stroke="currentColor" stroke-width="2" stroke-linecap="round" stroke-linejoin="round" />
    </symbol>
    <symbol id="user" width="100%" height="100%" viewBox="0 0 24 24" fill="none">
      <circle cx="12" cy="6" r="4" fill="currentColor" />
      <ellipse cx="12" cy="17" rx="7" ry="4" fill="currentColor" />
    </symbol>
    <symbol id="cart" width="100%" height="100%" viewBox="0 0 25 25" fill="none">
      <path d="M2.73956 3.53367C2.87694 3.14291 3.3051 2.9375 3.69586 3.07489L3.99726 3.18085C4.61379 3.39758 5.13742 3.58166 5.54951 3.78386C5.99014 4.00006 6.36799 4.2664 6.65217 4.68226C6.93415 5.0949 7.05057 5.54762 7.1043 6.044C7.12835 6.2662 7.14104 6.51214 7.14773 6.78247H17.7859C19.4709 6.78247 20.9877 6.78247 21.4316 7.35955C21.8755 7.93664 21.702 8.80616 21.3549 10.5452L20.8551 12.9699C20.54 14.4988 20.3824 15.2633 19.8307 15.7129C19.279 16.1625 18.4985 16.1625 16.9375 16.1625H11.6346C8.84568 16.1625 7.45122 16.1625 6.58482 15.2486C5.71842 14.3348 5.65518 13.364 5.65518 10.4225L5.65518 7.82079C5.65518 7.08084 5.65416 6.58563 5.61301 6.20542C5.57368 5.84207 5.50398 5.66065 5.41372 5.52856C5.32566 5.3997 5.19199 5.27927 4.88876 5.13049C4.56592 4.97208 4.12716 4.81653 3.45955 4.58181L3.19835 4.48998C2.80758 4.35259 2.60217 3.92444 2.73956 3.53367Z" fill="currentColor" />
      <path d="M8.1554 18.7825C8.98382 18.7825 9.6554 19.454 9.6554 20.2825C9.6554 21.1109 8.98382 21.7825 8.1554 21.7825C7.32697 21.7825 6.6554 21.1109 6.6554 20.2825C6.6554 19.454 7.32697 18.7825 8.1554 18.7825Z" fill="currentColor" />
      <path d="M17.1554 18.7825C17.9838 18.7825 18.6554 19.4541 18.6554 20.2825C18.6554 21.111 17.9838 21.7825 17.1554 21.7825C16.327 21.7825 15.6554 21.111 15.6554 20.2825C15.6554 19.4541 16.327 18.7825 17.1554 18.7825Z" fill="currentColor" />
    </symbol>
    <symbol id="cart-contur" width="100%" height="100%" viewBox="0 0 24 24" fill="none">
      <path d="M7.5 18C8.32843 18 9 18.6716 9 19.5C9 20.3284 8.32843 21 7.5 21C6.67157 21 6 20.3284 6 19.5C6 18.6716 6.67157 18 7.5 18Z" stroke="currentColor" stroke-width="1.5" />
      <path d="M16.5 18.0001C17.3284 18.0001 18 18.6716 18 19.5001C18 20.3285 17.3284 21.0001 16.5 21.0001C15.6716 21.0001 15 20.3285 15 19.5001C15 18.6716 15.6716 18.0001 16.5 18.0001Z" stroke="currentColor" stroke-width="1.5" />
      <path d="M2.26121 3.09184L2.50997 2.38429H2.50997L2.26121 3.09184ZM2.24876 2.29246C1.85799 2.15507 1.42984 2.36048 1.29246 2.75124C1.15507 3.14201 1.36048 3.57016 1.75124 3.70754L2.24876 2.29246ZM4.58584 4.32298L5.20507 3.89983V3.89983L4.58584 4.32298ZM5.88772 14.5862L5.34345 15.1022H5.34345L5.88772 14.5862ZM20.6578 9.88275L21.3923 10.0342L21.3933 10.0296L20.6578 9.88275ZM20.158 12.3075L20.8926 12.4589L20.158 12.3075ZM20.7345 6.69708L20.1401 7.15439L20.7345 6.69708ZM19.1336 15.0504L18.6598 14.469L19.1336 15.0504ZM5.70808 9.76V7.03836H4.20808V9.76H5.70808ZM2.50997 2.38429L2.24876 2.29246L1.75124 3.70754L2.01245 3.79938L2.50997 2.38429ZM10.9375 16.25H16.2404V14.75H10.9375V16.25ZM5.70808 7.03836C5.70808 6.3312 5.7091 5.7411 5.65719 5.26157C5.60346 4.76519 5.48705 4.31247 5.20507 3.89983L3.96661 4.74613C4.05687 4.87822 4.12657 5.05964 4.1659 5.42299C4.20706 5.8032 4.20808 6.29841 4.20808 7.03836H5.70808ZM2.01245 3.79938C2.68006 4.0341 3.11881 4.18965 3.44166 4.34806C3.74488 4.49684 3.87855 4.61727 3.96661 4.74613L5.20507 3.89983C4.92089 3.48397 4.54304 3.21763 4.10241 3.00143C3.68139 2.79485 3.14395 2.60719 2.50997 2.38429L2.01245 3.79938ZM4.20808 9.76C4.20808 11.2125 4.22171 12.2599 4.35876 13.0601C4.50508 13.9144 4.79722 14.5261 5.34345 15.1022L6.43198 14.0702C6.11182 13.7325 5.93913 13.4018 5.83723 12.8069C5.72607 12.1578 5.70808 11.249 5.70808 9.76H4.20808ZM10.9375 14.75C9.52069 14.75 8.53763 14.7482 7.79696 14.6432C7.08215 14.5418 6.70452 14.3576 6.43198 14.0702L5.34345 15.1022C5.93731 15.7286 6.69012 16.0013 7.58636 16.1283C8.45674 16.2518 9.56535 16.25 10.9375 16.25V14.75ZM4.95808 6.87H17.0888V5.37H4.95808V6.87ZM19.9232 9.73135L19.4235 12.1561L20.8926 12.4589L21.3923 10.0342L19.9232 9.73135ZM17.0888 6.87C17.9452 6.87 18.6989 6.871 19.2937 6.93749C19.5893 6.97053 19.8105 7.01643 19.9659 7.07105C20.1273 7.12776 20.153 7.17127 20.1401 7.15439L21.329 6.23978C21.094 5.93436 20.7636 5.76145 20.4632 5.65587C20.1567 5.54818 19.8101 5.48587 19.4604 5.44678C18.7646 5.369 17.9174 5.37 17.0888 5.37V6.87ZM21.3933 10.0296C21.5625 9.18167 21.7062 8.47024 21.7414 7.90038C21.7775 7.31418 21.7108 6.73617 21.329 6.23978L20.1401 7.15439C20.2021 7.23508 20.2706 7.38037 20.2442 7.80797C20.2168 8.25191 20.1002 8.84478 19.9223 9.73595L21.3933 10.0296ZM16.2404 16.25C17.0021 16.25 17.6413 16.2513 18.1566 16.1882C18.6923 16.1227 19.1809 15.9794 19.6074 15.6318L18.6598 14.469C18.5346 14.571 18.3571 14.6525 17.9744 14.6994C17.5712 14.7487 17.0397 14.75 16.2404 14.75V16.25ZM19.4235 12.1561C19.2621 12.9389 19.1535 13.4593 19.0238 13.8442C18.9007 14.2095 18.785 14.367 18.6598 14.469L19.6074 15.6318C20.0339 15.2842 20.2729 14.8346 20.4453 14.3232C20.6111 13.8312 20.7388 13.2049 20.8926 12.4589L19.4235 12.1561Z" fill="currentColor" />
    </symbol>
    <symbol id="marker-around" width="100%" height="100%" viewBox="0 0 24 24" fill="none">
      <path d="M6 8.10747C6 4.73441 8.68629 2 12 2C15.3137 2 18 4.73441 18 8.10747C18 11.4541 16.085 15.3593 13.0972 16.7558C12.4007 17.0814 11.5993 17.0814 10.9028 16.7558C7.91499 15.3593 6 11.4541 6 8.10747Z" stroke="currentColor" stroke-width="1.5" />
      <path d="M14 8C14 9.10457 13.1046 10 12 10C10.8954 10 10 9.10457 10 8C10 6.89543 10.8954 6 12 6C13.1046 6 14 6.89543 14 8Z" stroke="currentColor" stroke-width="1.5" />
      <path d="M12 20.6875L12.4939 21.2519C12.6566 21.1095 12.75 20.9038 12.75 20.6875C12.75 20.4712 12.6566 20.2655 12.4939 20.1231L12 20.6875ZM21.4263 14.4122C21.1016 14.1549 20.6299 14.2096 20.3727 14.5342C20.1155 14.8589 20.1701 15.3306 20.4948 15.5878L21.4263 14.4122ZM3.50523 15.5878C3.82989 15.3306 3.88455 14.8589 3.62731 14.5342C3.37008 14.2096 2.89836 14.1549 2.5737 14.4122L3.50523 15.5878ZM10.5 19.375L10.9939 18.8106C10.7724 18.6168 10.4581 18.5704 10.1901 18.692C9.9221 18.8136 9.75 19.0807 9.75 19.375H10.5ZM10.5 22H9.75C9.75 22.2943 9.9221 22.5614 10.1901 22.683C10.4581 22.8046 10.7724 22.7582 10.9939 22.5644L10.5 22ZM14.4244 19.8173C14.0123 19.859 13.7121 20.227 13.7538 20.6391C13.7956 21.0512 14.1635 21.3514 14.5756 21.3096L14.4244 19.8173ZM10.5443 19.8948C8.20148 19.756 6.17254 19.2897 4.75556 18.6471C4.04582 18.3252 3.52438 17.9747 3.19064 17.6296C2.86028 17.288 2.75 16.993 2.75 16.75H1.25C1.25 17.494 1.60081 18.1434 2.11244 18.6724C2.62069 19.1979 3.32214 19.644 4.13599 20.0131C5.76619 20.7525 7.98726 21.246 10.4557 21.3922L10.5443 19.8948ZM20.4948 15.5878C21.0684 16.0424 21.25 16.443 21.25 16.75H22.75C22.75 15.7998 22.1833 15.012 21.4263 14.4122L20.4948 15.5878ZM2.75 16.75C2.75 16.443 2.93157 16.0424 3.50523 15.5878L2.5737 14.4122C1.81667 15.012 1.25 15.7998 1.25 16.75H2.75ZM12.4939 20.1231L10.9939 18.8106L10.0061 19.9394L11.5061 21.2519L12.4939 20.1231ZM9.75 19.375V20.6435H11.25V19.375H9.75ZM9.75 20.6435V22H11.25V20.6435H9.75ZM10.9939 22.5644L12.4939 21.2519L11.5061 20.1231L10.0061 21.4356L10.9939 22.5644ZM21.25 16.75C21.25 17.2066 20.8246 17.8623 19.5314 18.5103C18.3014 19.1266 16.522 19.6047 14.4244 19.8173L14.5756 21.3096C16.791 21.0851 18.7617 20.5738 20.2034 19.8514C21.5819 19.1606 22.75 18.1281 22.75 16.75H21.25Z" fill="currentColor" />
    </symbol>
    <symbol id="telegramm" width="100%" height="100%" viewBox="0 0 13 12" fill="none">
      <path fill-rule="evenodd" clip-rule="evenodd" d="M1.00063 5.4584C4.42976 3.90289 6.71258 2.8693 7.85889 2.36785C11.1215 0.945385 11.8073 0.699778 12.2482 0.689545C12.3462 0.689545 12.5617 0.710012 12.7087 0.832815C12.8262 0.935151 12.8556 1.06819 12.8752 1.17052C12.8948 1.27286 12.9144 1.48777 12.8948 1.6515C12.7185 3.59589 11.9543 8.31357 11.5624 10.4831C11.3958 11.4041 11.0725 11.7111 10.759 11.7418C10.0731 11.8032 9.55386 11.2711 8.89743 10.8208C7.85889 10.1147 7.28084 9.67464 6.27169 8.97875C5.10579 8.18053 5.8602 7.74049 6.52643 7.02414C6.70279 6.83993 9.71063 3.97453 9.76941 3.71869C9.77921 3.68799 9.77921 3.56518 9.71063 3.50378C9.64204 3.44238 9.54407 3.46285 9.46569 3.48332C9.35791 3.50378 7.71193 4.64995 4.50814 6.91157C4.03786 7.24928 3.61657 7.41302 3.23446 7.40278C2.81317 7.39255 2.00977 7.15718 1.40233 6.9525C0.667512 6.7069 0.0796606 6.57386 0.128648 6.14405C0.158041 5.91891 0.451966 5.69377 1.00063 5.4584Z" fill="currentColor" />
    </symbol>
    <symbol id="ok" width="100%" height="100%" viewBox="0 0 10 18" fill="none">
      <path d="M5.02714 9.27607C7.36273 9.27607 9.26675 7.37205 9.26675 5.03646C9.26675 2.70088 7.36273 0.796875 5.02714 0.796875C2.66616 0.796875 0.762162 2.70088 0.762162 5.03646C0.762162 7.37205 2.66616 9.27607 5.02714 9.27607ZM5.02714 3.28477C5.99184 3.28477 6.77883 4.07177 6.77883 5.03646C6.77883 6.00116 5.99184 6.78815 5.02714 6.78815C4.06245 6.78815 3.27545 6.00116 3.27545 5.03646C3.25006 4.07177 4.03705 3.28477 5.02714 3.28477Z" fill="currentColor" />
      <path d="M6.72805 12.7542C7.59121 12.5511 8.42898 12.2211 9.19049 11.7387C9.77444 11.3833 9.95212 10.5963 9.57139 10.0124C9.21602 9.42855 8.42898 9.25083 7.84508 9.63163C6.11876 10.7233 3.85934 10.7233 2.13304 9.63163C1.54915 9.27622 0.787547 9.42855 0.406747 10.0124C0.0767165 10.5963 0.254419 11.3579 0.838316 11.7133C1.59992 12.1957 2.43768 12.5257 3.30084 12.7289L0.939856 15.0899C0.457516 15.5722 0.457516 16.3592 0.939856 16.8415C1.19374 17.0953 1.49838 17.1969 1.82841 17.1969C2.15844 17.1969 2.46307 17.0699 2.71694 16.8415L5.05253 14.5059L7.38811 16.8415C7.87045 17.3239 8.65743 17.3239 9.13977 16.8415C9.62211 16.3592 9.62211 15.5722 9.13977 15.0899L6.72805 12.7542Z" fill="currentColor" />
      <path d="M5.02714 9.27607C7.36273 9.27607 9.26675 7.37205 9.26675 5.03646C9.26675 2.70088 7.36273 0.796875 5.02714 0.796875C2.66618 0.796875 0.762162 2.70088 0.762162 5.03646C0.762162 7.37205 2.66618 9.27607 5.02714 9.27607ZM5.02714 3.28477C5.99184 3.28477 6.77883 4.07177 6.77883 5.03646C6.77883 6.00116 5.99184 6.78815 5.02714 6.78815C4.06245 6.78815 3.27545 6.00116 3.27545 5.03646C3.25008 4.07177 4.03705 3.28477 5.02714 3.28477Z" fill="currentColor" />
      <path d="M6.72805 12.7542C7.59121 12.5511 8.42897 12.221 9.19066 11.7387C9.77444 11.3833 9.95212 10.5963 9.57139 10.0124C9.21602 9.4285 8.42898 9.25078 7.84508 9.63158C6.11878 10.7232 3.85936 10.7232 2.13304 9.63158C1.54915 9.27618 0.787547 9.4285 0.406747 10.0124C0.0767165 10.5963 0.254419 11.3579 0.838316 11.7133C1.59993 12.1957 2.4377 12.5257 3.30084 12.7288L0.939874 15.0898C0.457517 15.5722 0.457517 16.3592 0.939874 16.8415C1.19374 17.0953 1.49838 17.1969 1.82841 17.1969C2.15844 17.1969 2.46307 17.0699 2.71694 16.8415L5.05253 14.5059L7.38811 16.8415C7.87047 17.3238 8.65743 17.3238 9.13977 16.8415C9.62211 16.3592 9.62211 15.5722 9.13977 15.0898L6.72805 12.7542Z" fill="currentColor" />
    </symbol>
    <symbol id="vk" width="100%" height="100%" viewBox="0 0 17 10" fill="none">
      <path d="M9.25916 10C3.45092 10 0.138039 6.24625 0 0H2.90943C3.005 4.58458 5.14985 6.52653 6.84879 6.92693V0H9.58844V3.95395C11.2661 3.78378 13.0286 1.98198 13.6232 0H16.3628C15.9062 2.44244 13.9949 4.24424 12.6357 4.98498C13.9949 5.58559 16.1718 7.15716 17 10H13.9843C13.3366 8.0981 11.7227 6.62663 9.58844 6.42643V10H9.25916Z" fill="currentColor" />
    </symbol>
    <symbol id="dzen" width="100%" height="100%" viewBox="0 0 28 28" fill="none">
      <path d="M28 14.15V13.85C21.8 13.65 18.97 13.5 16.7 11.3C14.5 9.03 14.34 6.2 14.15 0H13.85C13.65 6.2 13.5 9.03 11.3 11.3C9.03 13.5 6.2 13.66 0 13.85V14.15C6.2 14.35 9.03 14.5 11.3 16.7C13.5 18.97 13.66 21.8 13.85 28H14.15C14.35 21.8 14.5 18.97 16.7 16.7C18.97 14.5 21.8 14.34 28 14.15Z" fill="currentColor" />
    </symbol>
    <symbol id="uds" width="100%" height="100%" viewBox="0 0 16 16" fill="none">
      <path d="M14.1666 4.00001C15.1792 4.00001 16 3.1792 16 2.16668C16 1.15415 15.1792 0.333344 14.1666 0.333344C13.1541 0.333344 12.3333 1.15415 12.3333 2.16668C12.3333 3.1792 13.1541 4.00001 14.1666 4.00001Z" fill="#FFA145" />
      <path d="M16 8C16 9.58225 15.5308 11.129 14.6517 12.4445C13.7727 13.7601 12.5233 14.7855 11.0615 15.391C9.59965 15.9965 7.99112 16.155 6.43927 15.8463C4.88742 15.5376 3.46198 14.7757 2.34315 13.6568C1.22433 12.538 0.462402 11.1126 0.153721 9.56073C-0.15496 8.00887 0.00346619 6.40035 0.608967 4.93853C1.21447 3.47673 2.23985 2.22729 3.55545 1.34824C4.87103 0.469193 6.41775 0 8 0H10.6667V3.66668H8C7.14045 3.66668 6.30017 3.90887 5.58547 4.38643C4.87078 4.86398 4.31375 5.54273 3.9848 6.33685C3.65588 7.13098 3.5698 8.00482 3.7375 8.84787C3.90517 9.6909 4.3191 10.4653 4.9269 11.0731C5.5347 11.6809 6.3091 12.0948 7.15212 12.2625C7.99517 12.4302 8.86903 12.3441 9.66315 12.0152C10.4573 11.6862 11.136 11.1292 11.6136 10.4145C12.0911 9.69983 12.3333 8.85955 12.3333 8V5.33332H16V8Z" fill="currentColor" />
    </symbol>
    <symbol id="search" width="100%" height="100%" viewBox="0 0 24 24" fill="none">
      <circle cx="11.5" cy="11.5" r="9.5" stroke="currentColor" stroke-width="1.5" />
      <path d="M18.5 18.5L22 22" stroke="currentColor" stroke-width="1.5" stroke-linecap="round" />
    </symbol>
    <symbol id="clock" width="100%" height="100%" viewBox="0 0 24 24" fill="none">
      <path d="M11.9999 2.0001C10.0221 2.0001 8.08876 2.58659 6.44428 3.6854C4.7998 4.78421 3.51808 6.34599 2.76121 8.17324C2.00433 10.0005 1.8063 12.0111 2.19215 13.9509C2.578 15.8907 3.5304 17.6726 4.92892 19.0711C6.32744 20.4696 8.10926 21.422 10.0491 21.8079C11.9889 22.1937 13.9995 21.9957 15.8268 21.2388C17.654 20.4819 19.2158 19.2002 20.3146 17.5557C21.4134 15.9112 21.9999 13.9779 21.9999 12.0001C22.0059 10.6852 21.7514 9.3821 21.251 8.16613C20.7505 6.95016 20.0142 5.84538 19.0844 4.9156C18.1546 3.98582 17.0498 3.24946 15.8339 2.74905C14.6179 2.24863 13.3148 1.99409 11.9999 2.0001ZM17.3181 15.1819C17.2364 15.3151 17.1232 15.4262 16.9884 15.5055C16.8537 15.5847 16.7016 15.6297 16.5454 15.6364C16.3841 15.6343 16.2266 15.587 16.0908 15.5L11.0909 12.5V7.45462C11.0909 7.21352 11.1866 6.98229 11.3571 6.8118C11.5276 6.64131 11.7588 6.54553 11.9999 6.54553C12.2411 6.54553 12.4723 6.64131 12.6428 6.8118C12.8133 6.98229 12.909 7.21352 12.909 7.45462V11.5001L16.9999 13.9546C17.1048 14.0109 17.1969 14.0883 17.2705 14.182C17.344 14.2756 17.3974 14.3834 17.4273 14.4987C17.4571 14.6139 17.4629 14.7341 17.4441 14.8517C17.4253 14.9692 17.3824 15.0817 17.3181 15.1819Z" fill="currentColor" />
    </symbol>
    <!--  -->
    <!--  -->
    <!--  -->
  </defs>
</svg>