<?xml version="1.0"?>
<svg xmlns="http://www.w3.org/2000/svg" xmlns:xlink="http://www.w3.org/1999/xlink" version="1.1" xml:space="preserve">
  <defs>
    <symbol id="email" width="100%" height="100%" viewBox="0 0 25 25">
      <path d="M14.8554 3.78247H10.4554C6.30707 3.78247 4.23289 3.78247 2.94416 5.10049C1.65543 6.41851 1.65543 8.53983 1.65543 12.7825C1.65543 17.0251 1.65543 19.1464 2.94416 20.4645C4.23289 21.7825 6.30707 21.7825 10.4554 21.7825H14.8554C19.0038 21.7825 21.078 21.7825 22.3667 20.4645C23.6554 19.1464 23.6554 17.0251 23.6554 12.7825C23.6554 8.53983 23.6554 6.41851 22.3667 5.10049C21.078 3.78247 19.0038 3.78247 14.8554 3.78247Z" fill="currentColor" />
      <path d="M19.7838 8.81647C20.1338 8.52478 20.1811 8.00456 19.8894 7.65453C19.5977 7.30451 19.0775 7.25721 18.7275 7.5489L16.3527 9.52789C15.3265 10.3831 14.6139 10.9749 14.0124 11.3618C13.4301 11.7363 13.0352 11.862 12.6556 11.862C12.2761 11.862 11.8812 11.7363 11.2989 11.3618C10.6973 10.9749 9.98484 10.3831 8.95858 9.52789L6.58379 7.5489C6.23377 7.25721 5.71355 7.30451 5.42186 7.65453C5.13017 8.00456 5.17746 8.52478 5.52749 8.81647L7.94363 10.8299C8.91862 11.6424 9.70887 12.301 10.4063 12.7496C11.1329 13.2169 11.8405 13.512 12.6556 13.512C13.4708 13.512 14.1784 13.2169 14.9049 12.7496C15.6024 12.301 16.3927 11.6424 17.3677 10.8299L19.7838 8.81647Z" fill="white" />
    </symbol>
    <symbol id="phone" width="100%" height="100%" viewBox="0 0 25 25">
      <path d="M10.693 6.09864L11.342 7.26157C11.9277 8.31105 11.6926 9.68779 10.7701 10.6103C10.7701 10.6103 10.7701 10.6103 10.7701 10.6103C10.77 10.6104 9.65131 11.7293 11.6799 13.758C13.7079 15.7859 14.8268 14.6686 14.8276 14.6678C14.8276 14.6677 14.8276 14.6678 14.8277 14.6677C15.7501 13.7453 17.1269 13.5102 18.1763 14.0959L19.3393 14.7449C20.924 15.6293 21.1111 17.8517 19.7182 19.2447C18.8812 20.0817 17.8558 20.7329 16.7223 20.7759C14.8142 20.8483 11.5737 20.3653 8.32313 17.1148C5.07255 13.8642 4.58964 10.6237 4.66198 8.71556C4.70495 7.58207 5.35623 6.55671 6.19323 5.7197C7.58618 4.32675 9.8086 4.51391 10.693 6.09864Z" fill="currentColor" />
      <path d="M13.9149 2.66255C13.9811 2.25366 14.3677 1.97628 14.7765 2.04248C14.8019 2.04732 14.8833 2.06254 14.926 2.07205C15.0113 2.09105 15.1303 2.12031 15.2787 2.16353C15.5755 2.24998 15.9901 2.39238 16.4877 2.62052C17.484 3.07727 18.8098 3.87628 20.1856 5.25208C21.5614 6.62788 22.3604 7.95369 22.8172 8.94997C23.0453 9.44758 23.1877 9.86219 23.2741 10.159C23.3174 10.3074 23.3466 10.4264 23.3656 10.5117C23.3751 10.5544 23.3821 10.5887 23.3869 10.614L23.3927 10.6452C23.4589 11.0541 23.184 11.4566 22.7751 11.5228C22.3674 11.5888 21.9833 11.3127 21.9155 10.9058C21.9134 10.8948 21.9077 10.8655 21.9015 10.8378C21.8892 10.7824 21.8678 10.6946 21.834 10.5784C21.7663 10.3461 21.6488 10.0008 21.4536 9.57509C21.0638 8.72479 20.3628 7.5506 19.1249 6.31274C17.8871 5.07488 16.7129 4.37388 15.8626 3.98405C15.4369 3.78889 15.0916 3.67136 14.8592 3.60369C14.7431 3.56986 14.5971 3.53634 14.5417 3.52401C14.1347 3.45619 13.8489 3.07027 13.9149 2.66255Z" fill="currentColor" />
      <path fill-rule="evenodd" clip-rule="evenodd" d="M14.1412 6.11201C14.255 5.71374 14.6701 5.48312 15.0683 5.59691L14.8623 6.31805C15.0683 5.59691 15.0683 5.59691 15.0683 5.59691L15.0698 5.59732L15.0713 5.59776L15.0747 5.59874L15.0824 5.60105L15.1022 5.60722C15.1173 5.61204 15.1361 5.61832 15.1585 5.62629C15.2035 5.64222 15.2628 5.66489 15.3356 5.69609C15.4813 5.75853 15.6804 5.85495 15.9249 5.99966C16.4144 6.28934 17.0825 6.77052 17.8675 7.55549C18.6525 8.34046 19.1337 9.00865 19.4233 9.49811C19.5681 9.74262 19.6645 9.94169 19.7269 10.0874C19.7581 10.1602 19.7808 10.2195 19.7967 10.2644C19.8047 10.2869 19.811 10.3057 19.8158 10.3208L19.8219 10.3406L19.8243 10.3483L19.8252 10.3517L19.8257 10.3532C19.8257 10.3532 19.8261 10.3547 19.1049 10.5607L19.8261 10.3547C19.9399 10.7529 19.7093 11.168 19.311 11.2818C18.9161 11.3947 18.5046 11.1689 18.3868 10.7768L18.3831 10.7661C18.3777 10.751 18.3667 10.7215 18.3482 10.6783C18.3112 10.5919 18.2441 10.4507 18.1325 10.2621C17.9095 9.88535 17.5068 9.3161 16.8068 8.61615C16.1069 7.9162 15.5376 7.51349 15.1609 7.29052C14.9723 7.17891 14.8311 7.11181 14.7447 7.07481C14.7015 7.05629 14.672 7.04526 14.6569 7.03993L14.6462 7.03623C14.2541 6.91835 14.0283 6.50691 14.1412 6.11201Z" fill="currentColor" />
    </symbol>
    <symbol id="menu" width="100%" height="100%" viewBox="0 0 24 24" fill="none">
      <path d="M20 7L4 7" stroke="currentColor" stroke-width="1.5" stroke-linecap="round" />
      <path d="M20 12L4 12" stroke="currentColor" stroke-width="1.5" stroke-linecap="round" />
      <path d="M20 17L4 17" stroke="currentColor" stroke-width="1.5" stroke-linecap="round" />
    </symbol>
    <symbol id="slider-next" width="100%" height="100%" viewBox="0 0 56 33">
      <path fill-rule="evenodd" clip-rule="evenodd" d="M46.3457 17.3877H0V15.0694H46.3096C44.7802 14.3408 43.4526 13.4367 42.285 12.3545C39.1978 9.49338 37.3552 5.49812 35.7447 0.633058L37.737 0C39.3238 4.79352 41.0358 8.372 43.7244 10.8638C46.1164 13.0808 49.3834 14.5275 54.3045 15.0694H56V15.216V17.2635V17.3877H54.5113C49.4737 17.911 46.1487 19.3622 43.7235 21.6053C41.0355 24.0915 39.3238 27.6642 37.737 32.4574L35.7447 31.8243C37.3553 26.959 39.1981 22.9689 42.2857 20.1132C43.4625 19.0249 44.8016 18.1174 46.3457 17.3877Z" fill="currentColor" />
    </symbol>
    <symbol id="slider-prev" width="100%" height="100%" viewBox="0 0 56 33">
      <path fill-rule="evenodd" clip-rule="evenodd" d="M9.6543 17.3877H56V15.0694H9.6904C11.2198 14.3408 12.5474 13.4367 13.715 12.3545C16.8022 9.49338 18.6448 5.49812 20.2553 0.633058L18.263 0C16.6762 4.79352 14.9642 8.372 12.2756 10.8638C9.8836 13.0808 6.6166 14.5275 1.6955 15.0694H0V15.216V17.2635V17.3877H1.4887C6.5263 17.911 9.8513 19.3622 12.2765 21.6053C14.9645 24.0915 16.6762 27.6642 18.263 32.4574L20.2553 31.8243C18.6447 26.959 16.8019 22.9689 13.7143 20.1132C12.5375 19.0249 11.1984 18.1174 9.6543 17.3877Z" fill="currentColor" />
    </symbol>
    <symbol id="gal-ochka" width="100%" height="100%" viewBox="0 0 12 10">
      <path d="M6.23497 8.79946C5.9649 9.16602 5.54433 9.3913 5.0896 9.41369C4.63487 9.43632 4.19445 9.25304 3.88975 8.91464L1.15929 5.88456C0.725328 5.40328 0.763876 4.6614 1.24515 4.22744C1.72689 3.79348 2.46831 3.83226 2.90227 4.31377L4.83407 6.45771C4.8627 6.48956 4.90425 6.50664 4.94695 6.50456C4.98988 6.50249 5.02912 6.48102 5.05475 6.44686L9.02546 1.0614C9.40979 0.539728 10.1443 0.428699 10.6662 0.813259C11.1876 1.19782 11.2984 1.93232 10.9139 2.45376L6.23497 8.79946Z" fill="currentColor" />
    </symbol>
    <symbol id="to-right" width="100%" height="100%" viewBox="0 0 24 24" fill="none">
      <path d="M9 5L15 12L9 19" stroke="currentColor" stroke-width="2" stroke-linecap="round" stroke-linejoin="round" />
    </symbol>
    <symbol id="to-left" width="100%" height="100%" viewBox="0 0 8 14">
      <path d="M2.36337 7.00019L6.84852 2.51504C7.2065 2.15706 7.2065 1.57666 6.84852 1.21868C6.49054 0.8607 5.91014 0.8607 5.55216 1.21868L0.418823 6.35201C0.0608425 6.70999 0.0608425 7.29039 0.418823 7.64838L5.55216 12.7817C5.91014 13.1397 6.49054 13.1397 6.84852 12.7817C7.2065 12.4237 7.2065 11.8433 6.84852 11.4853L2.36337 7.00019Z" fill="currentColor" />
    </symbol>
    <symbol id="to-down" width="100%" height="100%" viewBox="0 0 17 16" fill="none">
      <path d="M12.9524 6L8.28572 10L3.61905 6" stroke="currentColor" stroke-width="1.5" stroke-linecap="round" stroke-linejoin="round" />
    </symbol>
    <symbol id="play" width="100%" height="100%" viewBox="0 0 32 38">
      <path d="M5.27275 38C4.93519 38 4.61146 37.8332 4.37278 37.5363C4.13409 37.2393 4 36.8366 4 36.4167V1.58307C4.00004 1.30794 4.05771 1.03756 4.16732 0.79859C4.27694 0.559623 4.43472 0.360315 4.62511 0.220312C4.81551 0.0803081 5.03194 0.00444103 5.25308 0.000189119C5.47422 -0.00406279 5.69243 0.0634472 5.88621 0.196064L31.3411 17.6129C31.5407 17.7495 31.7071 17.9503 31.823 18.1943C31.9389 18.4383 32 18.7165 32 18.9999C32 19.2833 31.9389 19.5615 31.823 19.8054C31.7071 20.0494 31.5407 20.2502 31.3411 20.3869L5.88621 37.8037C5.69829 37.9324 5.48727 37.9999 5.27275 38Z" fill="currentColor" />
    </symbol>
    <symbol id="cross" width="100%" height="100%" viewBox="0 0 16 16">
      <path d="M1 15L15 1M1 1L15 15" fill="none" stroke="currentColor" stroke-width="2" stroke-linecap="round" stroke-linejoin="round" />
    </symbol>
    <symbol id="user" width="100%" height="100%" viewBox="0 0 24 24" fill="none">
      <circle cx="12" cy="6" r="4" fill="currentColor" />
      <ellipse cx="12" cy="17" rx="7" ry="4" fill="currentColor" />
    </symbol>
    <symbol id="user-contur" width="100%" height="100%" viewBox="0 0 24 24" fill="none">
      <circle cx="12" cy="6" r="4" stroke="currentColor" stroke-width="1.5" />
      <ellipse cx="12" cy="17" rx="7" ry="4" stroke="currentColor" stroke-width="1.5" />
    </symbol>
    <symbol id="cart" width="100%" height="100%" viewBox="0 0 25 25" fill="none">
      <path d="M2.73956 3.53367C2.87694 3.14291 3.3051 2.9375 3.69586 3.07489L3.99726 3.18085C4.61379 3.39758 5.13742 3.58166 5.54951 3.78386C5.99014 4.00006 6.36799 4.2664 6.65217 4.68226C6.93415 5.0949 7.05057 5.54762 7.1043 6.044C7.12835 6.2662 7.14104 6.51214 7.14773 6.78247H17.7859C19.4709 6.78247 20.9877 6.78247 21.4316 7.35955C21.8755 7.93664 21.702 8.80616 21.3549 10.5452L20.8551 12.9699C20.54 14.4988 20.3824 15.2633 19.8307 15.7129C19.279 16.1625 18.4985 16.1625 16.9375 16.1625H11.6346C8.84568 16.1625 7.45122 16.1625 6.58482 15.2486C5.71842 14.3348 5.65518 13.364 5.65518 10.4225L5.65518 7.82079C5.65518 7.08084 5.65416 6.58563 5.61301 6.20542C5.57368 5.84207 5.50398 5.66065 5.41372 5.52856C5.32566 5.3997 5.19199 5.27927 4.88876 5.13049C4.56592 4.97208 4.12716 4.81653 3.45955 4.58181L3.19835 4.48998C2.80758 4.35259 2.60217 3.92444 2.73956 3.53367Z" fill="currentColor" />
      <path d="M8.1554 18.7825C8.98382 18.7825 9.6554 19.454 9.6554 20.2825C9.6554 21.1109 8.98382 21.7825 8.1554 21.7825C7.32697 21.7825 6.6554 21.1109 6.6554 20.2825C6.6554 19.454 7.32697 18.7825 8.1554 18.7825Z" fill="currentColor" />
      <path d="M17.1554 18.7825C17.9838 18.7825 18.6554 19.4541 18.6554 20.2825C18.6554 21.111 17.9838 21.7825 17.1554 21.7825C16.327 21.7825 15.6554 21.111 15.6554 20.2825C15.6554 19.4541 16.327 18.7825 17.1554 18.7825Z" fill="currentColor" />
    </symbol>
    <symbol id="cart-contur" width="100%" height="100%" viewBox="0 0 24 24" fill="none">
      <path d="M7.5 18C8.32843 18 9 18.6716 9 19.5C9 20.3284 8.32843 21 7.5 21C6.67157 21 6 20.3284 6 19.5C6 18.6716 6.67157 18 7.5 18Z" stroke="currentColor" stroke-width="1.5" />
      <path d="M16.5 18.0001C17.3284 18.0001 18 18.6716 18 19.5001C18 20.3285 17.3284 21.0001 16.5 21.0001C15.6716 21.0001 15 20.3285 15 19.5001C15 18.6716 15.6716 18.0001 16.5 18.0001Z" stroke="currentColor" stroke-width="1.5" />
      <path d="M2.26121 3.09184L2.50997 2.38429H2.50997L2.26121 3.09184ZM2.24876 2.29246C1.85799 2.15507 1.42984 2.36048 1.29246 2.75124C1.15507 3.14201 1.36048 3.57016 1.75124 3.70754L2.24876 2.29246ZM4.58584 4.32298L5.20507 3.89983V3.89983L4.58584 4.32298ZM5.88772 14.5862L5.34345 15.1022H5.34345L5.88772 14.5862ZM20.6578 9.88275L21.3923 10.0342L21.3933 10.0296L20.6578 9.88275ZM20.158 12.3075L20.8926 12.4589L20.158 12.3075ZM20.7345 6.69708L20.1401 7.15439L20.7345 6.69708ZM19.1336 15.0504L18.6598 14.469L19.1336 15.0504ZM5.70808 9.76V7.03836H4.20808V9.76H5.70808ZM2.50997 2.38429L2.24876 2.29246L1.75124 3.70754L2.01245 3.79938L2.50997 2.38429ZM10.9375 16.25H16.2404V14.75H10.9375V16.25ZM5.70808 7.03836C5.70808 6.3312 5.7091 5.7411 5.65719 5.26157C5.60346 4.76519 5.48705 4.31247 5.20507 3.89983L3.96661 4.74613C4.05687 4.87822 4.12657 5.05964 4.1659 5.42299C4.20706 5.8032 4.20808 6.29841 4.20808 7.03836H5.70808ZM2.01245 3.79938C2.68006 4.0341 3.11881 4.18965 3.44166 4.34806C3.74488 4.49684 3.87855 4.61727 3.96661 4.74613L5.20507 3.89983C4.92089 3.48397 4.54304 3.21763 4.10241 3.00143C3.68139 2.79485 3.14395 2.60719 2.50997 2.38429L2.01245 3.79938ZM4.20808 9.76C4.20808 11.2125 4.22171 12.2599 4.35876 13.0601C4.50508 13.9144 4.79722 14.5261 5.34345 15.1022L6.43198 14.0702C6.11182 13.7325 5.93913 13.4018 5.83723 12.8069C5.72607 12.1578 5.70808 11.249 5.70808 9.76H4.20808ZM10.9375 14.75C9.52069 14.75 8.53763 14.7482 7.79696 14.6432C7.08215 14.5418 6.70452 14.3576 6.43198 14.0702L5.34345 15.1022C5.93731 15.7286 6.69012 16.0013 7.58636 16.1283C8.45674 16.2518 9.56535 16.25 10.9375 16.25V14.75ZM4.95808 6.87H17.0888V5.37H4.95808V6.87ZM19.9232 9.73135L19.4235 12.1561L20.8926 12.4589L21.3923 10.0342L19.9232 9.73135ZM17.0888 6.87C17.9452 6.87 18.6989 6.871 19.2937 6.93749C19.5893 6.97053 19.8105 7.01643 19.9659 7.07105C20.1273 7.12776 20.153 7.17127 20.1401 7.15439L21.329 6.23978C21.094 5.93436 20.7636 5.76145 20.4632 5.65587C20.1567 5.54818 19.8101 5.48587 19.4604 5.44678C18.7646 5.369 17.9174 5.37 17.0888 5.37V6.87ZM21.3933 10.0296C21.5625 9.18167 21.7062 8.47024 21.7414 7.90038C21.7775 7.31418 21.7108 6.73617 21.329 6.23978L20.1401 7.15439C20.2021 7.23508 20.2706 7.38037 20.2442 7.80797C20.2168 8.25191 20.1002 8.84478 19.9223 9.73595L21.3933 10.0296ZM16.2404 16.25C17.0021 16.25 17.6413 16.2513 18.1566 16.1882C18.6923 16.1227 19.1809 15.9794 19.6074 15.6318L18.6598 14.469C18.5346 14.571 18.3571 14.6525 17.9744 14.6994C17.5712 14.7487 17.0397 14.75 16.2404 14.75V16.25ZM19.4235 12.1561C19.2621 12.9389 19.1535 13.4593 19.0238 13.8442C18.9007 14.2095 18.785 14.367 18.6598 14.469L19.6074 15.6318C20.0339 15.2842 20.2729 14.8346 20.4453 14.3232C20.6111 13.8312 20.7388 13.2049 20.8926 12.4589L19.4235 12.1561Z" fill="currentColor" />
    </symbol>
    <symbol id="marker-around" width="100%" height="100%" viewBox="0 0 24 24" fill="none">
      <path d="M6 8.10747C6 4.73441 8.68629 2 12 2C15.3137 2 18 4.73441 18 8.10747C18 11.4541 16.085 15.3593 13.0972 16.7558C12.4007 17.0814 11.5993 17.0814 10.9028 16.7558C7.91499 15.3593 6 11.4541 6 8.10747Z" stroke="currentColor" stroke-width="1.5" />
      <path d="M14 8C14 9.10457 13.1046 10 12 10C10.8954 10 10 9.10457 10 8C10 6.89543 10.8954 6 12 6C13.1046 6 14 6.89543 14 8Z" stroke="currentColor" stroke-width="1.5" />
      <path d="M12 20.6875L12.4939 21.2519C12.6566 21.1095 12.75 20.9038 12.75 20.6875C12.75 20.4712 12.6566 20.2655 12.4939 20.1231L12 20.6875ZM21.4263 14.4122C21.1016 14.1549 20.6299 14.2096 20.3727 14.5342C20.1155 14.8589 20.1701 15.3306 20.4948 15.5878L21.4263 14.4122ZM3.50523 15.5878C3.82989 15.3306 3.88455 14.8589 3.62731 14.5342C3.37008 14.2096 2.89836 14.1549 2.5737 14.4122L3.50523 15.5878ZM10.5 19.375L10.9939 18.8106C10.7724 18.6168 10.4581 18.5704 10.1901 18.692C9.9221 18.8136 9.75 19.0807 9.75 19.375H10.5ZM10.5 22H9.75C9.75 22.2943 9.9221 22.5614 10.1901 22.683C10.4581 22.8046 10.7724 22.7582 10.9939 22.5644L10.5 22ZM14.4244 19.8173C14.0123 19.859 13.7121 20.227 13.7538 20.6391C13.7956 21.0512 14.1635 21.3514 14.5756 21.3096L14.4244 19.8173ZM10.5443 19.8948C8.20148 19.756 6.17254 19.2897 4.75556 18.6471C4.04582 18.3252 3.52438 17.9747 3.19064 17.6296C2.86028 17.288 2.75 16.993 2.75 16.75H1.25C1.25 17.494 1.60081 18.1434 2.11244 18.6724C2.62069 19.1979 3.32214 19.644 4.13599 20.0131C5.76619 20.7525 7.98726 21.246 10.4557 21.3922L10.5443 19.8948ZM20.4948 15.5878C21.0684 16.0424 21.25 16.443 21.25 16.75H22.75C22.75 15.7998 22.1833 15.012 21.4263 14.4122L20.4948 15.5878ZM2.75 16.75C2.75 16.443 2.93157 16.0424 3.50523 15.5878L2.5737 14.4122C1.81667 15.012 1.25 15.7998 1.25 16.75H2.75ZM12.4939 20.1231L10.9939 18.8106L10.0061 19.9394L11.5061 21.2519L12.4939 20.1231ZM9.75 19.375V20.6435H11.25V19.375H9.75ZM9.75 20.6435V22H11.25V20.6435H9.75ZM10.9939 22.5644L12.4939 21.2519L11.5061 20.1231L10.0061 21.4356L10.9939 22.5644ZM21.25 16.75C21.25 17.2066 20.8246 17.8623 19.5314 18.5103C18.3014 19.1266 16.522 19.6047 14.4244 19.8173L14.5756 21.3096C16.791 21.0851 18.7617 20.5738 20.2034 19.8514C21.5819 19.1606 22.75 18.1281 22.75 16.75H21.25Z" fill="currentColor" />
    </symbol>
    <symbol id="telegramm" width="100%" height="100%" viewBox="0 0 13 12" fill="none">
      <path fill-rule="evenodd" clip-rule="evenodd" d="M1.00063 5.4584C4.42976 3.90289 6.71258 2.8693 7.85889 2.36785C11.1215 0.945385 11.8073 0.699778 12.2482 0.689545C12.3462 0.689545 12.5617 0.710012 12.7087 0.832815C12.8262 0.935151 12.8556 1.06819 12.8752 1.17052C12.8948 1.27286 12.9144 1.48777 12.8948 1.6515C12.7185 3.59589 11.9543 8.31357 11.5624 10.4831C11.3958 11.4041 11.0725 11.7111 10.759 11.7418C10.0731 11.8032 9.55386 11.2711 8.89743 10.8208C7.85889 10.1147 7.28084 9.67464 6.27169 8.97875C5.10579 8.18053 5.8602 7.74049 6.52643 7.02414C6.70279 6.83993 9.71063 3.97453 9.76941 3.71869C9.77921 3.68799 9.77921 3.56518 9.71063 3.50378C9.64204 3.44238 9.54407 3.46285 9.46569 3.48332C9.35791 3.50378 7.71193 4.64995 4.50814 6.91157C4.03786 7.24928 3.61657 7.41302 3.23446 7.40278C2.81317 7.39255 2.00977 7.15718 1.40233 6.9525C0.667512 6.7069 0.0796606 6.57386 0.128648 6.14405C0.158041 5.91891 0.451966 5.69377 1.00063 5.4584Z" fill="currentColor" />
    </symbol>
    <symbol id="ok" width="100%" height="100%" viewBox="0 0 10 18" fill="none">
      <path d="M5.02714 9.27607C7.36273 9.27607 9.26675 7.37205 9.26675 5.03646C9.26675 2.70088 7.36273 0.796875 5.02714 0.796875C2.66616 0.796875 0.762162 2.70088 0.762162 5.03646C0.762162 7.37205 2.66616 9.27607 5.02714 9.27607ZM5.02714 3.28477C5.99184 3.28477 6.77883 4.07177 6.77883 5.03646C6.77883 6.00116 5.99184 6.78815 5.02714 6.78815C4.06245 6.78815 3.27545 6.00116 3.27545 5.03646C3.25006 4.07177 4.03705 3.28477 5.02714 3.28477Z" fill="currentColor" />
      <path d="M6.72805 12.7542C7.59121 12.5511 8.42898 12.2211 9.19049 11.7387C9.77444 11.3833 9.95212 10.5963 9.57139 10.0124C9.21602 9.42855 8.42898 9.25083 7.84508 9.63163C6.11876 10.7233 3.85934 10.7233 2.13304 9.63163C1.54915 9.27622 0.787547 9.42855 0.406747 10.0124C0.0767165 10.5963 0.254419 11.3579 0.838316 11.7133C1.59992 12.1957 2.43768 12.5257 3.30084 12.7289L0.939856 15.0899C0.457516 15.5722 0.457516 16.3592 0.939856 16.8415C1.19374 17.0953 1.49838 17.1969 1.82841 17.1969C2.15844 17.1969 2.46307 17.0699 2.71694 16.8415L5.05253 14.5059L7.38811 16.8415C7.87045 17.3239 8.65743 17.3239 9.13977 16.8415C9.62211 16.3592 9.62211 15.5722 9.13977 15.0899L6.72805 12.7542Z" fill="currentColor" />
      <path d="M5.02714 9.27607C7.36273 9.27607 9.26675 7.37205 9.26675 5.03646C9.26675 2.70088 7.36273 0.796875 5.02714 0.796875C2.66618 0.796875 0.762162 2.70088 0.762162 5.03646C0.762162 7.37205 2.66618 9.27607 5.02714 9.27607ZM5.02714 3.28477C5.99184 3.28477 6.77883 4.07177 6.77883 5.03646C6.77883 6.00116 5.99184 6.78815 5.02714 6.78815C4.06245 6.78815 3.27545 6.00116 3.27545 5.03646C3.25008 4.07177 4.03705 3.28477 5.02714 3.28477Z" fill="currentColor" />
      <path d="M6.72805 12.7542C7.59121 12.5511 8.42897 12.221 9.19066 11.7387C9.77444 11.3833 9.95212 10.5963 9.57139 10.0124C9.21602 9.4285 8.42898 9.25078 7.84508 9.63158C6.11878 10.7232 3.85936 10.7232 2.13304 9.63158C1.54915 9.27618 0.787547 9.4285 0.406747 10.0124C0.0767165 10.5963 0.254419 11.3579 0.838316 11.7133C1.59993 12.1957 2.4377 12.5257 3.30084 12.7288L0.939874 15.0898C0.457517 15.5722 0.457517 16.3592 0.939874 16.8415C1.19374 17.0953 1.49838 17.1969 1.82841 17.1969C2.15844 17.1969 2.46307 17.0699 2.71694 16.8415L5.05253 14.5059L7.38811 16.8415C7.87047 17.3238 8.65743 17.3238 9.13977 16.8415C9.62211 16.3592 9.62211 15.5722 9.13977 15.0898L6.72805 12.7542Z" fill="currentColor" />
    </symbol>
    <symbol id="vk" width="100%" height="100%" viewBox="0 0 17 10" fill="none">
      <path d="M9.25916 10C3.45092 10 0.138039 6.24625 0 0H2.90943C3.005 4.58458 5.14985 6.52653 6.84879 6.92693V0H9.58844V3.95395C11.2661 3.78378 13.0286 1.98198 13.6232 0H16.3628C15.9062 2.44244 13.9949 4.24424 12.6357 4.98498C13.9949 5.58559 16.1718 7.15716 17 10H13.9843C13.3366 8.0981 11.7227 6.62663 9.58844 6.42643V10H9.25916Z" fill="currentColor" />
    </symbol>
    <symbol id="dzen" width="100%" height="100%" viewBox="0 0 28 28" fill="none">
      <path d="M28 14.15V13.85C21.8 13.65 18.97 13.5 16.7 11.3C14.5 9.03 14.34 6.2 14.15 0H13.85C13.65 6.2 13.5 9.03 11.3 11.3C9.03 13.5 6.2 13.66 0 13.85V14.15C6.2 14.35 9.03 14.5 11.3 16.7C13.5 18.97 13.66 21.8 13.85 28H14.15C14.35 21.8 14.5 18.97 16.7 16.7C18.97 14.5 21.8 14.34 28 14.15Z" fill="currentColor" />
    </symbol>
    <symbol id="uds" width="100%" height="100%" viewBox="0 0 16 16" fill="none">
      <path d="M14.1666 4.00001C15.1792 4.00001 16 3.1792 16 2.16668C16 1.15415 15.1792 0.333344 14.1666 0.333344C13.1541 0.333344 12.3333 1.15415 12.3333 2.16668C12.3333 3.1792 13.1541 4.00001 14.1666 4.00001Z" fill="#FFA145" />
      <path d="M16 8C16 9.58225 15.5308 11.129 14.6517 12.4445C13.7727 13.7601 12.5233 14.7855 11.0615 15.391C9.59965 15.9965 7.99112 16.155 6.43927 15.8463C4.88742 15.5376 3.46198 14.7757 2.34315 13.6568C1.22433 12.538 0.462402 11.1126 0.153721 9.56073C-0.15496 8.00887 0.00346619 6.40035 0.608967 4.93853C1.21447 3.47673 2.23985 2.22729 3.55545 1.34824C4.87103 0.469193 6.41775 0 8 0H10.6667V3.66668H8C7.14045 3.66668 6.30017 3.90887 5.58547 4.38643C4.87078 4.86398 4.31375 5.54273 3.9848 6.33685C3.65588 7.13098 3.5698 8.00482 3.7375 8.84787C3.90517 9.6909 4.3191 10.4653 4.9269 11.0731C5.5347 11.6809 6.3091 12.0948 7.15212 12.2625C7.99517 12.4302 8.86903 12.3441 9.66315 12.0152C10.4573 11.6862 11.136 11.1292 11.6136 10.4145C12.0911 9.69983 12.3333 8.85955 12.3333 8V5.33332H16V8Z" fill="currentColor" />
    </symbol>
    <symbol id="search" width="100%" height="100%" viewBox="0 0 24 24" fill="none">
      <circle cx="11.5" cy="11.5" r="9.5" stroke="currentColor" stroke-width="1.5" />
      <path d="M18.5 18.5L22 22" stroke="currentColor" stroke-width="1.5" stroke-linecap="round" />
    </symbol>
    <symbol id="clock" width="100%" height="100%" viewBox="0 0 24 24" fill="none">
      <path d="M11.9999 2.0001C10.0221 2.0001 8.08876 2.58659 6.44428 3.6854C4.7998 4.78421 3.51808 6.34599 2.76121 8.17324C2.00433 10.0005 1.8063 12.0111 2.19215 13.9509C2.578 15.8907 3.5304 17.6726 4.92892 19.0711C6.32744 20.4696 8.10926 21.422 10.0491 21.8079C11.9889 22.1937 13.9995 21.9957 15.8268 21.2388C17.654 20.4819 19.2158 19.2002 20.3146 17.5557C21.4134 15.9112 21.9999 13.9779 21.9999 12.0001C22.0059 10.6852 21.7514 9.3821 21.251 8.16613C20.7505 6.95016 20.0142 5.84538 19.0844 4.9156C18.1546 3.98582 17.0498 3.24946 15.8339 2.74905C14.6179 2.24863 13.3148 1.99409 11.9999 2.0001ZM17.3181 15.1819C17.2364 15.3151 17.1232 15.4262 16.9884 15.5055C16.8537 15.5847 16.7016 15.6297 16.5454 15.6364C16.3841 15.6343 16.2266 15.587 16.0908 15.5L11.0909 12.5V7.45462C11.0909 7.21352 11.1866 6.98229 11.3571 6.8118C11.5276 6.64131 11.7588 6.54553 11.9999 6.54553C12.2411 6.54553 12.4723 6.64131 12.6428 6.8118C12.8133 6.98229 12.909 7.21352 12.909 7.45462V11.5001L16.9999 13.9546C17.1048 14.0109 17.1969 14.0883 17.2705 14.182C17.344 14.2756 17.3974 14.3834 17.4273 14.4987C17.4571 14.6139 17.4629 14.7341 17.4441 14.8517C17.4253 14.9692 17.3824 15.0817 17.3181 15.1819Z" fill="currentColor" />
    </symbol>
    <symbol id="bath" width="100%" height="100%" viewBox="0 0 48 49" fill="none">
      <path fill-rule="evenodd" clip-rule="evenodd" d="M4 22.5H3.5C2.67157 22.5 2 23.1716 2 24C2 24.8284 2.67157 25.5 3.5 25.5H4V26L4.00017 26.0228L4.00001 26.1335L4.00002 26.2091C4.00001 26.9597 4 27.3997 4.03115 27.8903C4.31503 32.3632 6.73209 36.4936 10.2352 39.1943C10.5505 39.4453 12.0614 40.3695 12.7774 40.8003C14.3808 41.6118 16.1246 42.146 17.9382 42.3297C18.4271 42.3792 18.7255 42.3904 19.2337 42.4095L19.2474 42.41C20.7278 42.4656 22.177 42.5 23.5 42.5C24.823 42.5 26.2722 42.4656 27.7527 42.41L27.7661 42.4095C28.2743 42.3904 28.573 42.3792 29.0618 42.3297C30.8756 42.146 32.6196 41.6117 34.2231 40.8C34.9 40.4017 36.356 39.5228 36.7653 39.194C40.2682 36.4933 42.685 32.363 42.9689 27.8903C43 27.3997 43 26.9598 43 26.2093L43 26.1335C43.0001 26.0133 43.0002 25.8883 42.9926 25.7729C42.9867 25.6809 42.9772 25.5899 42.9642 25.5H43.5C44.3284 25.5 45 24.8284 45 24C45 23.1716 44.3284 22.5 43.5 22.5H7H4Z" fill="currentColor" />
      <path opacity="0.5" d="M10.2352 39.1943C10.2077 39.2376 10.1821 39.2827 10.1587 39.3295L8.15869 43.3295C7.7882 44.0705 8.08854 44.9715 8.82951 45.342C9.57048 45.7125 10.4715 45.4121 10.842 44.6712L12.7774 40.8003C12.0614 40.3696 10.5505 39.4453 10.2352 39.1943Z" fill="currentColor" />
      <path opacity="0.5" d="M34.2227 40.7999L36.1582 44.671C36.5287 45.412 37.4297 45.7123 38.1707 45.3418C38.9116 44.9713 39.212 44.0703 38.8415 43.3294L36.8415 39.3294C36.818 39.2824 36.7924 39.2372 36.7648 39.1938C36.3556 39.5227 34.8995 40.4016 34.2227 40.7999Z" fill="currentColor" />
      <path opacity="0.5" d="M7 8.77033C7 6.96418 8.46418 5.5 10.2703 5.5C11.6076 5.5 12.8101 6.31415 13.3068 7.55576L13.5933 8.27214L16.3125 6.99227L16.0922 6.44159C15.1399 4.061 12.8343 2.5 10.2703 2.5C6.80732 2.5 4 5.30732 4 8.77033V22.5H7V8.77033Z" fill="currentColor" />
      <path d="M13.593 8.27206C12.404 9.13848 11.4325 10.3466 10.8341 11.8202C9.99352 13.8902 10.0389 16.1132 10.7953 18.0329C10.9441 18.4106 11.2396 18.7118 11.6144 18.8678C11.9891 19.0238 12.4111 19.0213 12.784 18.8608L24.7055 13.7286C25.4497 13.4083 25.805 12.5548 25.5079 11.801C24.7512 9.88049 23.2736 8.24369 21.243 7.37618C19.6203 6.68296 17.8987 6.58969 16.3121 6.99218L13.593 8.27206Z" fill="currentColor" />
    </symbol>
    <symbol id="crown" width="100%" height="100%" viewBox="0 0 48 49" fill="none">
      <path opacity="0.5" d="M43.6764 22.7526L43.218 27.6231C42.4627 35.6483 42.085 39.6609 39.7198 42.0805C37.3546 44.5 33.8097 44.5 26.7198 44.5H21.2802C14.1903 44.5 10.6454 44.5 8.28019 42.0805C5.91496 39.6609 5.53731 35.6483 4.782 27.6231L4.32362 22.7526C3.9636 18.9274 3.78359 17.0148 4.43797 16.2241C4.79196 15.7965 5.27331 15.5344 5.78797 15.4892C6.73937 15.4056 7.93416 16.7658 10.3237 19.4861C11.5595 20.893 12.1774 21.5964 12.8667 21.7053C13.2487 21.7657 13.6378 21.7036 13.9905 21.5262C14.627 21.2058 15.0514 20.3362 15.9001 18.597L20.3739 9.42972C21.9777 6.14324 22.7796 4.5 24 4.5C25.2204 4.5 26.0223 6.14324 27.6261 9.42971L32.0999 18.597C32.9486 20.3362 33.373 21.2058 34.0095 21.5262C34.3622 21.7036 34.7513 21.7657 35.1333 21.7053C35.8226 21.5964 36.4405 20.893 37.6763 19.4861C40.0658 16.7658 41.2606 15.4056 42.212 15.4892C42.7267 15.5344 43.208 15.7965 43.562 16.2241C44.2164 17.0148 44.0364 18.9274 43.6764 22.7526Z" fill="currentColor" />
      <path d="M16.5 36.5C16.5 35.6716 17.1716 35 18 35H30C30.8284 35 31.5 35.6716 31.5 36.5C31.5 37.3284 30.8284 38 30 38H18C17.1716 38 16.5 37.3284 16.5 36.5Z" fill="currentColor" />
    </symbol>
    <symbol id="diamond" width="100%" height="100%" viewBox="0 0 48 49" fill="none">
      <path d="M18.7507 41.2997C19.0474 41.5646 19.4972 41.2759 19.3858 40.8941L14.3469 23.6177C14.253 23.296 13.9686 23.0671 13.6344 23.0425C12.8189 22.9826 12.0038 22.9157 11.1892 22.8416L4.44835 22.2288C4.13364 22.2002 3.91212 22.5302 4.06112 22.8089C7.70725 29.6286 12.9577 36.1266 18.7507 41.2997Z" fill="currentColor" />
      <path d="M23.6943 44.9518C23.7349 45.0912 23.8548 45.1961 24 45.196C24.1452 45.196 24.2651 45.0912 24.3057 44.9518L30.4735 23.8051C30.5504 23.5416 30.345 23.2807 30.0707 23.2924C26.0255 23.4661 21.9746 23.4661 17.9293 23.2924C17.655 23.2807 17.4496 23.5416 17.5265 23.8051L23.6943 44.9518Z" fill="currentColor" />
      <path d="M28.6142 40.8941C28.5029 41.2759 28.9526 41.5646 29.2493 41.2997C35.0424 36.1266 40.2928 29.6285 43.9389 22.8089C44.0879 22.5302 43.8664 22.2002 43.5517 22.2288L36.8108 22.8416C35.9962 22.9157 35.1811 22.9826 34.3656 23.0425C34.0314 23.0671 33.747 23.296 33.6532 23.6177L28.6142 40.8941Z" fill="currentColor" />
      <path d="M43.602 19.2119C43.9068 19.1841 44.0688 18.8384 43.895 18.5864L37.4195 9.19683C36.8595 8.38486 35.9362 7.90002 34.9498 7.90002H29.9705C29.6863 7.90002 29.4927 8.18818 29.6003 8.45132L34.1137 19.4981C34.2449 19.8192 34.5681 20.0194 34.9139 19.992C35.4559 19.9492 35.9976 19.9032 36.5392 19.8539L43.602 19.2119Z" fill="currentColor" />
      <path d="M26.3301 8.39233C26.2059 8.09421 25.9146 7.90002 25.5917 7.90002H22.4084C22.0854 7.90002 21.7941 8.09422 21.6699 8.39233L16.9548 19.7086C16.8485 19.9638 17.0269 20.2473 17.3031 20.2607C21.7651 20.4767 26.2349 20.4767 30.6969 20.2607C30.9731 20.2473 31.1516 19.9638 31.0452 19.7086L26.3301 8.39233Z" fill="currentColor" />
      <path d="M18.3998 8.45132C18.5073 8.18818 18.3137 7.90002 18.0295 7.90002H13.0502C12.0639 7.90002 11.1405 8.38486 10.5806 9.19683L4.105 18.5864C3.93124 18.8384 4.09327 19.1841 4.39807 19.2119L11.4608 19.8539C12.0024 19.9032 12.5442 19.9492 13.0861 19.992C13.4319 20.0194 13.7551 19.8192 13.8863 19.4981L18.3998 8.45132Z" fill="currentColor" />
      <path d="M18.7508 41.2996C19.0475 41.5645 19.4972 41.2758 19.3859 40.894L14.3469 23.6176C14.2531 23.2959 13.9687 23.067 13.6344 23.0424C12.819 22.9825 12.0039 22.9155 11.1892 22.8415L4.44839 22.2287C4.13369 22.2001 3.91217 22.5301 4.06116 22.8088C7.70729 29.6284 12.9577 36.1265 18.7508 41.2996Z" fill="currentColor" opacity="0.5" />
      <path d="M28.6143 40.894C28.5029 41.2758 28.9527 41.5645 29.2494 41.2995C35.0424 36.1264 40.2928 29.6284 43.939 22.8088C44.0879 22.5301 43.8664 22.2001 43.5517 22.2287L36.8109 22.8415C35.9963 22.9155 35.1812 22.9825 34.3657 23.0424C34.0315 23.067 33.7471 23.2959 33.6532 23.6176L28.6143 40.894Z" fill="currentColor" opacity="0.5" />
      <path d="M43.602 19.2117C43.9068 19.184 44.0688 18.8382 43.8951 18.5863L37.4195 9.1967C36.8595 8.38474 35.9362 7.8999 34.9499 7.8999H29.9706C29.6863 7.8999 29.4928 8.18806 29.6003 8.45119L34.1138 19.4979C34.245 19.819 34.5682 20.0192 34.914 19.9919C35.4559 19.9491 35.9977 19.903 36.5392 19.8538L43.602 19.2117Z" fill="currentColor" />
      <path d="M18.3998 8.45119C18.5073 8.18806 18.3138 7.8999 18.0295 7.8999H13.0503C12.0639 7.8999 11.1406 8.38474 10.5806 9.1967L4.10504 18.5863C3.93128 18.8382 4.09331 19.184 4.39811 19.2117L11.4608 19.8538C12.0024 19.903 12.5442 19.9491 13.0862 19.9919C13.432 20.0192 13.7552 19.819 13.8863 19.4979L18.3998 8.45119Z" fill="currentColor" opacity="0.5" />
    </symbol>
    <symbol id="vip" width="100%" height="100%" viewBox="0 0 48 49" fill="none">
      <path d="M36.5 6.5H8L28 23.5L36.5 6.5Z" fill="currentColor" opacity="0.5" />
      <path fill-rule="evenodd" clip-rule="evenodd" d="M4.67599 10.226C4.46188 9.8455 4.35115 9.41556 4.35482 8.97897C4.3585 8.54238 4.47645 8.11436 4.69693 7.73751C4.91741 7.36067 5.23274 7.04814 5.61154 6.83102C5.99033 6.61391 6.41939 6.49978 6.85599 6.5H17.216C17.7483 6.50021 18.2709 6.64202 18.7303 6.91089C19.1896 7.17976 19.5692 7.56601 19.83 8.03L26 19.016L32.17 8.03C32.4308 7.56601 32.8104 7.17976 33.2697 6.91089C33.7291 6.64202 34.2517 6.50021 34.784 6.5H41.144C41.5806 6.49978 42.0097 6.61391 42.3884 6.83102C42.7672 7.04814 43.0826 7.36067 43.3031 7.73751C43.5235 8.11436 43.6415 8.54238 43.6452 8.97897C43.6488 9.41556 43.5381 9.8455 43.324 10.226L26.178 40.706C25.9605 41.0927 25.6441 41.4145 25.2612 41.6384C24.8782 41.8624 24.4426 41.9805 23.999 41.9805C23.5554 41.9805 23.1198 41.8624 22.7368 41.6384C22.3539 41.4145 22.0375 41.0927 21.82 40.706L4.67599 10.226Z" fill="currentColor" />
    </symbol>
    <symbol id="bill-check" width="100%" height="100%" viewBox="0 0 30 30" fill="none">
      <path opacity="0.5" d="M9.05627 2.5H20.9437C22.3923 2.5 23.1166 2.5 23.7008 2.70326C24.8085 3.08869 25.6782 3.98399 26.0526 5.12433C26.25 5.72568 26.25 6.47131 26.25 7.96258V25.4677C26.25 26.5405 25.0188 27.1097 24.2399 26.397C23.7823 25.9783 23.0927 25.9783 22.6351 26.397L22.0312 26.9496C21.2293 27.6835 20.0207 27.6835 19.2188 26.9496C18.4168 26.2157 17.2082 26.2157 16.4062 26.9496C15.6043 27.6835 14.3957 27.6835 13.5938 26.9496C12.7918 26.2157 11.5832 26.2157 10.7812 26.9496C9.97927 27.6835 8.77073 27.6835 7.96875 26.9496L7.36488 26.397C6.90728 25.9783 6.21772 25.9783 5.76012 26.397C4.98125 27.1097 3.75 26.5405 3.75 25.4677V7.96258C3.75 6.47131 3.75 5.72568 3.94744 5.12433C4.32185 3.98399 5.19152 3.08869 6.29924 2.70326C6.88338 2.5 7.60768 2.5 9.05627 2.5Z" fill="currentColor" />
      <path d="M18.8243 10.6244C19.1692 10.2382 19.1356 9.64553 18.7494 9.30069C18.3632 8.95585 17.7705 8.9894 17.4257 9.37562L13.6607 13.5924L12.5743 12.3756C12.2295 11.9894 11.6368 11.9559 11.2506 12.3007C10.8644 12.6455 10.8308 13.2382 11.1757 13.6244L12.9614 15.6244C13.1393 15.8236 13.3937 15.9375 13.6607 15.9375C13.9278 15.9375 14.1822 15.8236 14.36 15.6244L18.8243 10.6244Z" fill="currentColor" />
      <path d="M9.375 18.4375C8.85723 18.4375 8.4375 18.8572 8.4375 19.375C8.4375 19.8928 8.85723 20.3125 9.375 20.3125H20.625C21.1428 20.3125 21.5625 19.8928 21.5625 19.375C21.5625 18.8572 21.1428 18.4375 20.625 18.4375H9.375Z" fill="currentColor" />
    </symbol>
    <symbol id="sale" width="100%" height="100%" viewBox="0 0 30 30" fill="none">
      <path opacity="0.5" d="M11.9905 4.00038C11.6861 4.25977 11.5339 4.38948 11.3713 4.49842C10.9987 4.74818 10.5802 4.92152 10.1401 5.0084C9.94814 5.04631 9.74879 5.06222 9.3501 5.09403L9.35009 5.09403C8.34836 5.17397 7.8475 5.21394 7.42963 5.36154C6.46314 5.70291 5.70291 6.46314 5.36154 7.42963C5.21394 7.8475 5.17397 8.34836 5.09403 9.35009L5.09403 9.3501C5.06222 9.74879 5.04631 9.94814 5.0084 10.1401C4.92152 10.5802 4.74818 10.9987 4.49842 11.3713C4.38947 11.5339 4.25976 11.6861 4.00034 11.9905C3.34854 12.7554 3.02263 13.1378 2.83152 13.5376C2.38949 14.4624 2.38949 15.5376 2.83152 16.4624C3.02263 16.8622 3.34853 17.2446 4.00033 18.0095L4.00034 18.0095L4.0004 18.0096C4.25975 18.3139 4.38948 18.4661 4.49842 18.6287C4.74818 19.0013 4.92152 19.4198 5.0084 19.8599C5.04631 20.0519 5.06222 20.2512 5.09403 20.6499L5.09403 20.6499C5.17397 21.6516 5.21394 22.1525 5.36154 22.5704C5.70291 23.5369 6.46314 24.2971 7.42963 24.6385C7.8475 24.7861 8.34836 24.826 9.35007 24.906H9.3501C9.74879 24.9378 9.94814 24.9537 10.1401 24.9916C10.5802 25.0785 10.9987 25.2518 11.3713 25.5016C11.5339 25.6105 11.6861 25.7402 11.9905 25.9997C12.7554 26.6515 13.1378 26.9774 13.5376 27.1685C14.4624 27.6105 15.5376 27.6105 16.4624 27.1685C16.8622 26.9774 17.2446 26.6515 18.0095 25.9997C18.3139 25.7402 18.4661 25.6105 18.6287 25.5016C19.0013 25.2518 19.4198 25.0785 19.8599 24.9916C20.0519 24.9537 20.2512 24.9378 20.6499 24.906H20.6499C21.6516 24.826 22.1525 24.7861 22.5704 24.6385C23.5369 24.2971 24.2971 23.5369 24.6385 22.5704C24.7861 22.1525 24.826 21.6516 24.906 20.6499V20.6499C24.9378 20.2512 24.9537 20.0519 24.9916 19.8599C25.0785 19.4198 25.2518 19.0013 25.5016 18.6287C25.6105 18.4661 25.7402 18.3139 25.9997 18.0095C26.6515 17.2446 26.9774 16.8622 27.1685 16.4624C27.6105 15.5376 27.6105 14.4624 27.1685 13.5376C26.9774 13.1378 26.6515 12.7554 25.9997 11.9905C25.7402 11.6861 25.6105 11.5339 25.5016 11.3713C25.2518 10.9987 25.0785 10.5802 24.9916 10.1401C24.9537 9.94814 24.9378 9.74879 24.906 9.3501V9.35007C24.826 8.34836 24.7861 7.8475 24.6385 7.42963C24.2971 6.46314 23.5369 5.70291 22.5704 5.36154C22.1525 5.21394 21.6516 5.17397 20.6499 5.09403L20.6499 5.09403C20.2512 5.06222 20.0519 5.04631 19.8599 5.0084C19.4198 4.92152 19.0013 4.74818 18.6287 4.49842C18.4661 4.38947 18.3139 4.25976 18.0095 4.00034L18.0095 4.00033C17.2446 3.34853 16.8622 3.02263 16.4624 2.83152C15.5376 2.38949 14.4624 2.38949 13.5376 2.83152C13.1378 3.02263 12.7554 3.34854 11.9905 4.00034L11.9905 4.00038Z" fill="currentColor" />
      <path d="M19.7886 10.2125C20.1859 10.6098 20.1859 11.2539 19.7886 11.6512L11.65 19.7898C11.2527 20.1871 10.6086 20.1871 10.2113 19.7898C9.81401 19.3925 9.81401 18.7484 10.2113 18.3511L18.3499 10.2125C18.7472 9.81523 19.3913 9.81523 19.7886 10.2125Z" fill="currentColor" />
      <path d="M19.7475 18.3923C19.7475 19.1414 19.1402 19.7487 18.391 19.7487C17.6419 19.7487 17.0346 19.1414 17.0346 18.3923C17.0346 17.6431 17.6419 17.0358 18.391 17.0358C19.1402 17.0358 19.7475 17.6431 19.7475 18.3923Z" fill="currentColor" />
      <path d="M11.6089 12.9665C12.358 12.9665 12.9653 12.3592 12.9653 11.6101C12.9653 10.861 12.358 10.2537 11.6089 10.2537C10.8597 10.2537 10.2524 10.861 10.2524 11.6101C10.2524 12.3592 10.8597 12.9665 11.6089 12.9665Z" fill="currentColor" />
    </symbol>
    <symbol id="gift" width="100%" height="100%" viewBox="0 0 30 30" fill="none">
      <path opacity="0.5" d="M2.5 15C2.5 9.10744 2.5 6.16117 4.33058 4.33058C6.16117 2.5 9.10744 2.5 15 2.5C20.8926 2.5 23.8388 2.5 25.6694 4.33058C27.5 6.16117 27.5 9.10744 27.5 15C27.5 20.8926 27.5 23.8388 25.6694 25.6694C23.8388 27.5 20.8926 27.5 15 27.5C9.10744 27.5 6.16117 27.5 4.33058 25.6694C2.5 23.8388 2.5 20.8926 2.5 15Z" fill="currentColor" />
      <path fill-rule="evenodd" clip-rule="evenodd" d="M8.64226 14.0625H2.5003C2.5 14.3664 2.5 14.6788 2.5 15C2.5 15.3212 2.5 15.6336 2.5003 15.9375H12.4842C12.5042 15.9377 12.5242 15.9379 12.5442 15.9379H12.7037C12.2804 17.7294 10.6709 19.0625 8.75 19.0625C8.23223 19.0625 7.8125 19.4822 7.8125 20C7.8125 20.5178 8.23223 20.9375 8.75 20.9375C11.075 20.9375 13.0879 19.6011 14.0625 17.6546V27.4997C14.3664 27.5 14.6788 27.5 15 27.5C15.3212 27.5 15.6336 27.5 15.9375 27.4997V17.6546C16.9121 19.6011 18.925 20.9375 21.25 20.9375C21.7678 20.9375 22.1875 20.5178 22.1875 20C22.1875 19.4822 21.7678 19.0625 21.25 19.0625C19.3291 19.0625 17.7196 17.7294 17.2963 15.9379H17.4562C17.4762 15.9379 17.4962 15.9377 17.5161 15.9375H27.4997C27.5 15.6336 27.5 15.3212 27.5 15C27.5 14.6788 27.5 14.3664 27.4997 14.0625H21.3581C21.7967 13.5146 22.1244 12.8683 22.3031 12.1535C22.9759 9.46223 20.5381 7.02447 17.8469 7.69729C17.1319 7.87604 16.4855 8.20384 15.9375 8.64255V2.5003C15.6336 2.5 15.3212 2.5 15 2.5C14.6788 2.5 14.3664 2.5 14.0625 2.5003V8.64226C13.5146 8.20369 12.8683 7.876 12.1535 7.69729C9.46223 7.02447 7.02447 9.46223 7.69729 12.1535C7.876 12.8683 8.20369 13.5146 8.64226 14.0625ZM14.0625 14.0625H12.4968C11.0846 14.0413 9.85982 13.0728 9.51631 11.6987C9.18679 10.3807 10.3807 9.18679 11.6987 9.51631C13.0728 9.85982 14.0412 11.0845 14.0625 12.4968V14.0625ZM17.5036 14.0625H15.9379V12.5442L15.9377 12.507C15.9544 11.0904 16.9243 9.86064 18.3016 9.51631C19.6197 9.18679 20.8136 10.3807 20.484 11.6987C20.1405 13.0728 18.9158 14.0413 17.5036 14.0625Z" fill="currentColor" />
    </symbol>
    <symbol id="rating-star" width="100%" height="100%" viewBox="0 0 24 24" fill="none">
      <path d="M9.15316 5.40838C10.4198 3.13613 11.0531 2 12 2C12.9469 2 13.5802 3.13612 14.8468 5.40837L15.1745 5.99623C15.5345 6.64193 15.7144 6.96479 15.9951 7.17781C16.2757 7.39083 16.6251 7.4699 17.3241 7.62805L17.9605 7.77203C20.4201 8.32856 21.65 8.60682 21.9426 9.54773C22.2352 10.4886 21.3968 11.4691 19.7199 13.4299L19.2861 13.9372C18.8096 14.4944 18.5713 14.773 18.4641 15.1177C18.357 15.4624 18.393 15.8341 18.465 16.5776L18.5306 17.2544C18.7841 19.8706 18.9109 21.1787 18.1449 21.7602C17.3788 22.3417 16.2273 21.8115 13.9243 20.7512L13.3285 20.4768C12.6741 20.1755 12.3469 20.0248 12 20.0248C11.6531 20.0248 11.3259 20.1755 10.6715 20.4768L10.0757 20.7512C7.77268 21.8115 6.62118 22.3417 5.85515 21.7602C5.08912 21.1787 5.21588 19.8706 5.4694 17.2544L5.53498 16.5776C5.60703 15.8341 5.64305 15.4624 5.53586 15.1177C5.42868 14.773 5.19043 14.4944 4.71392 13.9372L4.2801 13.4299C2.60325 11.4691 1.76482 10.4886 2.05742 9.54773C2.35002 8.60682 3.57986 8.32856 6.03954 7.77203L6.67589 7.62805C7.37485 7.4699 7.72433 7.39083 8.00494 7.17781C8.28555 6.96479 8.46553 6.64194 8.82547 5.99623L9.15316 5.40838Z" fill="currentColor" />
    </symbol>
    <symbol id="yandex-star" width="100%" height="100%" viewBox="0 0 16 16" fill="none">
      <path d="M8.00001 11.8334L3.88535 13.9967L4.67135 9.41472L1.33801 6.17005L5.93801 5.50338L7.99535 1.33472L10.0527 5.50338L14.6527 6.17005L11.3193 9.41472L12.1053 13.9967L8.00001 11.8334Z" fill="currentColor" />
    </symbol>
    <symbol id="circle" width="100%" height="100%" viewBox="0 0 12 12" fill="none">
      <circle cx="6" cy="6" r="6" fill="currentColor" />
    </symbol>
    <symbol id="calendar" width="100%" height="100%" viewBox="0 0 20 20" fill="none">
      <path d="M6.45841 2.1875C6.45841 1.84232 6.17859 1.5625 5.83341 1.5625C5.48824 1.5625 5.20841 1.84232 5.20841 2.1875V3.50355C4.00897 3.59959 3.22156 3.83531 2.64306 4.41381C2.06456 4.99231 1.82884 5.77972 1.7328 6.97917H18.2674C18.1713 5.77972 17.9356 4.99231 17.3571 4.41381C16.7786 3.83531 15.9912 3.59959 14.7917 3.50355V2.1875C14.7917 1.84232 14.5119 1.5625 14.1667 1.5625C13.8216 1.5625 13.5417 1.84232 13.5417 2.1875V3.44825C12.9874 3.4375 12.3659 3.4375 11.6667 3.4375H8.33341C7.63422 3.4375 7.0128 3.4375 6.45841 3.44825V2.1875Z" fill="currentColor" />
      <path fill-rule="evenodd" clip-rule="evenodd" d="M18.3334 10.1042V11.7708C18.3334 14.9135 18.3334 16.4849 17.3571 17.4612C16.3808 18.4375 14.8094 18.4375 11.6667 18.4375H8.33341C5.19072 18.4375 3.61937 18.4375 2.64306 17.4612C1.66675 16.4849 1.66675 14.9135 1.66675 11.7708V10.1042C1.66675 9.40497 1.66675 8.78356 1.6775 8.22917H18.3227C18.3334 8.78356 18.3334 9.40497 18.3334 10.1042ZM13.7501 15.1042C14.4404 15.1042 15.0001 14.5445 15.0001 13.8542C15.0001 13.1638 14.4404 12.6042 13.7501 12.6042C13.0597 12.6042 12.5001 13.1638 12.5001 13.8542C12.5001 14.5445 13.0597 15.1042 13.7501 15.1042Z" fill="currentColor" />
    </symbol>
    <symbol id="arrow-left" width="100%" height="100%" viewBox="0 0 24 24" fill="none">
      <path d="M20 12H4M4 12L10 6M4 12L10 18" stroke="currentColor" stroke-width="1.5" stroke-linecap="round" stroke-linejoin="round" />
    </symbol>
    <symbol id="medical" width="100%" height="100%" viewBox="0 0 24 24" fill="none">
      <path d="M12.052 1.25H11.948C11.0495 1.24997 10.3003 1.24995 9.70552 1.32991C9.07773 1.41432 8.51093 1.59999 8.05546 2.05546C7.59999 2.51093 7.41432 3.07773 7.32991 3.70552C7.24995 4.3003 7.24997 5.0495 7.25 5.94797L7.25 6.02572C7.70703 6.01076 8.20535 6.00451 8.75 6.00189V6C8.75 5.03599 8.7516 4.38843 8.81654 3.9054C8.87858 3.44393 8.9858 3.24644 9.11612 3.11612C9.24644 2.9858 9.44393 2.87858 9.9054 2.81654C10.3884 2.7516 11.036 2.75 12 2.75C12.964 2.75 13.6116 2.7516 14.0946 2.81654C14.5561 2.87858 14.7536 2.9858 14.8839 3.11612C15.0142 3.24644 15.1214 3.44393 15.1835 3.9054C15.2484 4.38843 15.25 5.03599 15.25 6V6.00189C15.7947 6.00451 16.293 6.01076 16.75 6.02572V5.94801C16.75 5.04954 16.7501 4.3003 16.6701 3.70552C16.5857 3.07773 16.4 2.51093 15.9445 2.05546C15.4891 1.59999 14.9223 1.41432 14.2945 1.32991C13.6997 1.24995 12.9505 1.24997 12.052 1.25Z" fill="currentColor" />
      <path opacity="0.5" fill-rule="evenodd" clip-rule="evenodd" d="M2 14C2 10.2288 2 8.34315 3.17157 7.17157C4.34315 6 6.22876 6 10 6H14C17.7712 6 19.6569 6 20.8284 7.17157C22 8.34315 22 10.2288 22 14C22 17.7712 22 19.6569 20.8284 20.8284C19.6569 22 17.7712 22 14 22H9.99998C6.22876 22 4.34314 22 3.17157 20.8284C2 19.6569 2 17.7712 2 14ZM12.75 12.5C12.75 12.0858 12.4142 11.75 12 11.75C11.5858 11.75 11.25 12.0858 11.25 12.5V13.25H10.5C10.0858 13.25 9.75 13.5858 9.75 14C9.75 14.4142 10.0858 14.75 10.5 14.75H11.25V15.5C11.25 15.9142 11.5858 16.25 12 16.25C12.4142 16.25 12.75 15.9142 12.75 15.5V14.75H13.5C13.9142 14.75 14.25 14.4142 14.25 14C14.25 13.5858 13.9142 13.25 13.5 13.25H12.75V12.5Z" fill="currentColor" />
      <path fill-rule="evenodd" clip-rule="evenodd" d="M12 18C14.2091 18 16 16.2091 16 14C16 11.7909 14.2091 10 12 10C9.79086 10 8 11.7909 8 14C8 16.2091 9.79086 18 12 18ZM12.75 12.5C12.75 12.0858 12.4142 11.75 12 11.75C11.5858 11.75 11.25 12.0858 11.25 12.5V13.25H10.5C10.0858 13.25 9.75 13.5858 9.75 14C9.75 14.4142 10.0858 14.75 10.5 14.75H11.25V15.5C11.25 15.9142 11.5858 16.25 12 16.25C12.4142 16.25 12.75 15.9142 12.75 15.5V14.75H13.5C13.9142 14.75 14.25 14.4142 14.25 14C14.25 13.5858 13.9142 13.25 13.5 13.25H12.75V12.5Z" fill="currentColor" />
    </symbol>
    <symbol id="academic" width="100%" height="100%" viewBox="0 0 24 24" fill="none">
      <path d="M14.2172 3.49965C12.7962 2.83345 11.2037 2.83345 9.78272 3.49965L3.0916 6.63659C2.0156 7.14105 1.73507 8.56352 2.25 9.54666L2.25 14.5C2.25 14.9142 2.58579 15.25 3 15.25C3.41421 15.25 3.75 14.9142 3.75 14.5V10.672L9.78281 13.5003C11.2038 14.1665 12.7963 14.1665 14.2173 13.5003L20.9084 10.3634C22.3639 9.68105 22.3639 7.31899 20.9084 6.63664L14.2172 3.49965Z" fill="currentColor" />
      <path opacity="0.5" d="M5 11.2581L9.78281 13.5004C11.2038 14.1666 12.7963 14.1666 14.2173 13.5004L19 11.2581V16.6252C19 17.6333 18.4965 18.577 17.6147 19.0654C16.1463 19.8786 13.796 20.9998 12 20.9998C10.204 20.9998 7.8537 19.8786 6.38533 19.0654C5.5035 18.577 5 17.6333 5 16.6252V11.2581Z" fill="currentColor" />
    </symbol>
    <symbol id="diploma" width="100%" height="100%" viewBox="0 0 24 24" fill="none">
      <path opacity="0.5" d="M2 8V12C2 14.8284 2 16.2426 2.87868 17.1213C3.35503 17.5977 3.98877 17.8158 4.9199 17.9156C4.9939 17.8157 5.06395 17.737 5.11392 17.6821C5.23008 17.5543 5.37739 17.4091 5.5202 17.2683L7.01311 15.7962L7.56446 15.2377C7.9268 13.1151 9.77461 11.5 12.0001 11.5C14.2255 11.5 16.0733 13.1151 16.4357 15.2377L16.987 15.7962L18.48 17.2684C18.6228 17.4092 18.7701 17.5544 18.8862 17.6821C18.9362 17.737 19.0062 17.8157 19.0802 17.9156C20.0113 17.8158 20.645 17.5977 21.1213 17.1213C22 16.2426 22 14.8284 22 12V8C22 5.17157 22 3.75736 21.1213 2.87868C20.2426 2 18.8284 2 16 2H8C5.17157 2 3.75736 2 2.87868 2.87868C2 3.75736 2 5.17157 2 8Z" fill="currentColor" />
      <path d="M7 8.75C6.58579 8.75 6.25 9.08579 6.25 9.5C6.25 9.91421 6.58579 10.25 7 10.25H17C17.4142 10.25 17.75 9.91421 17.75 9.5C17.75 9.08579 17.4142 8.75 17 8.75H7Z" fill="currentColor" />
      <path d="M8.25 6C8.25 5.58579 8.58579 5.25 9 5.25H15C15.4142 5.25 15.75 5.58579 15.75 6C15.75 6.41421 15.4142 6.75 15 6.75H9C8.58579 6.75 8.25 6.41421 8.25 6Z" fill="currentColor" />
      <path d="M9.00111 15.9174C9.00037 15.9449 9 15.9724 9 16C9 17.6569 10.3431 19 12 19C13.6569 19 15 17.6569 15 16C15 15.9724 14.9996 15.9449 14.9989 15.9174C14.9551 14.2987 13.6292 13 12 13C10.4467 13 9.16912 14.1805 9.01549 15.6933C9.00798 15.7672 9.00315 15.842 9.00111 15.9174Z" fill="currentColor" />
      <path d="M7.6757 17.2494L6.59523 18.3148C6.27116 18.6344 6.10913 18.7942 6.05306 18.9295C5.92529 19.2378 6.03463 19.5799 6.31283 19.7421C6.43491 19.8132 6.65512 19.8354 7.09553 19.8798C7.3442 19.9048 7.46853 19.9173 7.57266 19.9554C7.80579 20.0405 7.98715 20.2193 8.07345 20.4492C8.112 20.5519 8.1247 20.6745 8.1501 20.9197C8.19509 21.354 8.21758 21.5711 8.28977 21.6915C8.45425 21.9659 8.80111 22.0737 9.1138 21.9477C9.25102 21.8924 9.41306 21.7326 9.73713 21.413L10.8175 20.343C9.30505 19.9322 8.10917 18.7524 7.6757 17.2494Z" fill="currentColor" />
      <path d="M13.1825 20.343L14.2629 21.413C14.5869 21.7326 14.749 21.8924 14.8862 21.9477C15.1989 22.0737 15.5457 21.9659 15.7102 21.6915C15.7824 21.5711 15.8049 21.354 15.8499 20.9197C15.8753 20.6745 15.888 20.5519 15.9265 20.4492C16.0129 20.2193 16.1942 20.0405 16.4273 19.9554C16.5315 19.9173 16.6558 19.9048 16.9045 19.8798C17.3449 19.8354 17.5651 19.8132 17.6872 19.7421C17.9654 19.5799 18.0747 19.2378 17.9469 18.9295C17.8909 18.7942 17.7288 18.6344 17.4048 18.3148L16.3243 17.2494C15.8908 18.7524 14.6949 19.9322 13.1825 20.343Z" fill="currentColor" />
    </symbol>
    <symbol id="chat" width="100%" height="100%" viewBox="0 0 42 42" fill="none">
      <path d="M38.5 14.875C38.5 8.59276 33.4072 3.5 27.125 3.5C23.48 3.5 20.2354 5.21902 18.1536 7.88761C27.0324 8.23088 34.125 15.5372 34.125 24.5C34.125 24.693 34.1217 24.8853 34.1152 25.0768L34.6966 25.2324C36.3877 25.6848 37.9348 24.1377 37.4824 22.4466L37.2595 21.6136C37.0794 20.9406 37.1876 20.2297 37.4771 19.596C38.134 18.158 38.5 16.5592 38.5 14.875Z" fill="currentColor" />
      <path fill-rule="evenodd" clip-rule="evenodd" d="M31.5 24.5C31.5 32.232 25.232 38.5 17.5 38.5C15.3379 38.5 13.2902 38.0099 11.4621 37.1346C10.8337 36.8338 10.1219 36.7282 9.44893 36.9083L7.30336 37.4824C5.61228 37.9348 4.06517 36.3877 4.51764 34.6966L5.09172 32.5511C5.27178 31.8781 5.16616 31.1663 4.86535 30.5379C3.99013 28.7098 3.5 26.6621 3.5 24.5C3.5 16.768 9.76801 10.5 17.5 10.5C25.232 10.5 31.5 16.768 31.5 24.5ZM11.375 26.25C12.3415 26.25 13.125 25.4665 13.125 24.5C13.125 23.5335 12.3415 22.75 11.375 22.75C10.4085 22.75 9.625 23.5335 9.625 24.5C9.625 25.4665 10.4085 26.25 11.375 26.25ZM17.5 26.25C18.4665 26.25 19.25 25.4665 19.25 24.5C19.25 23.5335 18.4665 22.75 17.5 22.75C16.5335 22.75 15.75 23.5335 15.75 24.5C15.75 25.4665 16.5335 26.25 17.5 26.25ZM23.625 26.25C24.5915 26.25 25.375 25.4665 25.375 24.5C25.375 23.5335 24.5915 22.75 23.625 22.75C22.6585 22.75 21.875 23.5335 21.875 24.5C21.875 25.4665 22.6585 26.25 23.625 26.25Z" fill="currentColor" />
    </symbol>
    <symbol id="location-contur" width="100%" height="100%" viewBox="0 0 24 24" fill="none">
      <path d="M4 10.1433C4 5.64588 7.58172 2 12 2C16.4183 2 20 5.64588 20 10.1433C20 14.6055 17.4467 19.8124 13.4629 21.6744C12.5343 22.1085 11.4657 22.1085 10.5371 21.6744C6.55332 19.8124 4 14.6055 4 10.1433Z" stroke="currentColor" stroke-width="1.5" />
      <circle cx="12" cy="10" r="3" stroke="currentColor" stroke-width="1.5" />
    </symbol>
    <!--  -->
    <!--  -->
    <!--  -->
  </defs>
</svg>