<svg width="56" height="90" viewBox="0 0 56 90" fill="none" xmlns="http://www.w3.org/2000/svg">
<g id="logo">
<path id="Vector" fill-rule="evenodd" clip-rule="evenodd" d="M38.9715 25.6589C38.9715 25.6589 38.7089 26.7942 37.4813 28.803C36.6913 30.0572 35.6039 31.0986 34.3151 31.8354C34.3151 31.8354 35.0587 30.953 32.2495 26.4177C29.4403 21.8824 25.9377 21.0442 25.9377 21.0442C25.9377 21.0442 26.1561 22.706 25.0525 25.5883C23.9489 28.4707 21.3639 31.3942 21.2843 31.4854C21.3108 31.4501 21.6059 31.0177 20.0095 29.2589C18.3453 27.4236 14.0046 25.1413 14.0046 25.1413C14.0046 25.753 14.5328 25.6236 12.3846 29.5118C10.2364 33.4001 12.8213 35.9324 12.8213 35.9324C13.1164 34.5795 15.3207 30.8207 15.3207 30.8207C15.3207 30.8207 18.959 32.4824 20.579 34.5354C22.199 36.5883 21.9836 37.2001 21.9836 37.2001C21.9836 37.2001 21.8951 37.3089 21.9364 37.3089C21.9777 37.3089 22.382 37.053 23.8692 35.7589C26.3213 33.6177 27.8557 30.0354 27.8557 30.0354H27.8794C28.0269 30.0354 28.9003 30.1412 30.5498 32.4824C32.3646 35.0589 31.7567 36.8942 31.7567 36.8942C32.9843 36.7648 34.8256 35.4236 35.5279 34.9736C36.2302 34.5236 38.7738 32.2648 38.7738 32.2648C38.8277 32.2347 38.8891 32.2204 38.9508 32.2236C39.1869 32.2236 39.6649 32.3795 40.3967 33.3118C41.4915 34.7089 41.3174 37.2001 41.3174 37.2001C42.4564 36.2824 43.9466 33.9648 43.7282 32.2207C43.0938 28.4618 38.9715 25.6589 38.9715 25.6589Z" fill="#114D99"/>
<path id="Vector_2" fill-rule="evenodd" clip-rule="evenodd" d="M2.396 14.1265V75.55C2.396 77.0321 2.98669 78.4535 4.03812 79.5015C5.08955 80.5495 6.5156 81.1382 8.00255 81.1382H23.518C24.5281 81.2973 25.4711 81.7422 26.2349 82.42C26.9986 83.0978 27.5509 83.9801 27.8262 84.9618C28.1012 83.9805 28.6531 83.0985 29.4162 82.4207C30.1794 81.7429 31.1218 81.2978 32.1314 81.1382H47.6468C49.1338 81.1382 50.5598 80.5495 51.6112 79.5015C52.6627 78.4535 53.2534 77.0321 53.2534 75.55V14.1265H2.396ZM41.7393 37.6941L40.6062 38.6L40.7035 37.1471C40.7035 37.1265 40.8452 34.8794 39.9157 33.6941C39.6909 33.3637 39.3969 33.0857 39.054 32.8794C38.4373 33.4265 36.534 35.1029 35.8907 35.5029C35.7816 35.5706 35.637 35.6676 35.4688 35.7794C34.2353 36.5941 32.9399 37.4029 31.8511 37.5176L30.8685 37.6235L31.1783 36.6853C31.1783 36.6706 31.6416 35.0912 30.054 32.8382C29.1688 31.5912 28.5609 31.0559 28.2157 30.8265C27.6727 31.9441 26.2917 34.5059 24.3147 36.2294C22.3376 37.9529 22.2344 37.9353 21.954 37.9353C21.8463 37.9347 21.7403 37.9074 21.6458 37.8558C21.5513 37.8042 21.4711 37.73 21.4126 37.6398C21.354 37.5497 21.3189 37.4464 21.3104 37.3393C21.3019 37.2322 21.3203 37.1247 21.3639 37.0265C21.3196 36.8235 21.1071 36.1971 20.1009 34.9206C18.9471 33.45 16.6337 32.1765 15.598 31.6471C14.8839 32.9088 13.6652 35.1765 13.4645 36.0588L13.2137 37.1735L12.3963 36.3735C11.8622 35.7977 11.4596 35.1133 11.216 34.3676C10.8294 33.2265 10.6258 31.4 11.8475 29.1912C13.5383 26.1294 13.4734 25.7471 13.4291 25.4971C13.4044 25.375 13.3916 25.2509 13.3907 25.1265V24.0765L14.3262 24.5647C14.5062 24.6588 18.7848 26.9176 20.5081 28.8088C20.8991 29.2244 21.2517 29.6742 21.5616 30.1529C22.4114 29.0735 23.7806 27.1765 24.477 25.3382C25.4803 22.6912 25.3239 21.1441 25.318 21.1L25.197 20.1882L26.0999 20.4029C26.2534 20.4382 29.8976 21.3471 32.8071 26.0618C34.1527 28.2441 34.7488 29.6794 34.9583 30.6265C35.7426 30.0317 36.4124 29.3003 36.9353 28.4676C38.0773 26.5941 38.3458 25.5265 38.3488 25.5088L38.5583 24.6029L39.3285 25.1265C39.5055 25.2471 43.6809 28.1206 44.3744 32.0971V32.1265C44.6429 34.1706 43.0111 36.6706 41.7393 37.6941Z" fill="#114D99"/>
<g id="Group 35386">
<path id="Vector_3" fill-rule="evenodd" clip-rule="evenodd" d="M43.7577 32.2207C43.0997 28.4618 38.9774 25.6677 38.9774 25.6677C38.9774 25.6677 38.7148 26.803 37.4872 28.8118C36.6944 30.0635 35.6051 31.1018 34.3151 31.8354C34.3151 31.8354 35.0587 30.953 32.2495 26.4177C29.4403 21.8824 25.9377 21.0442 25.9377 21.0442C25.9377 21.0442 26.1561 22.706 25.0525 25.5883C23.9489 28.4707 21.3639 31.3942 21.2843 31.4854C21.3108 31.4501 21.6059 31.0177 20.0095 29.2589C18.3453 27.4236 14.0046 25.1413 14.0046 25.1413C14.0046 25.753 14.5328 25.6236 12.3846 29.5118C10.2364 33.4001 12.8213 35.9324 12.8213 35.9324C13.1164 34.5795 15.3207 30.8207 15.3207 30.8207C15.3207 30.8207 18.959 32.4824 20.579 34.5354C22.199 36.5883 21.9836 37.2001 21.9836 37.2001C21.9836 37.2001 21.8951 37.3089 21.9364 37.3089C21.9777 37.3089 22.382 37.053 23.8692 35.7589C26.3213 33.6177 27.8557 30.0354 27.8557 30.0354H27.8794C28.0269 30.0354 28.9003 30.1412 30.5498 32.4824C32.3646 35.0589 31.7567 36.8942 31.7567 36.8942C32.9843 36.7648 34.8256 35.4236 35.5279 34.9736C36.2302 34.5236 38.7738 32.2648 38.7738 32.2648C38.8277 32.2347 38.8891 32.2204 38.9508 32.2236C39.1869 32.2236 39.6649 32.3795 40.3967 33.3118C41.4915 34.7089 41.3174 37.2001 41.3174 37.2001C42.48 36.2824 43.9702 33.9677 43.7577 32.2207Z" fill="#E02222"/>
<path id="Vector_4" fill-rule="evenodd" clip-rule="evenodd" d="M7.18811 40.2588C12.0216 45.2941 19.4694 48.5235 27.8232 48.5235C36.177 48.5235 43.6248 45.2882 48.4583 40.2588H7.18811Z" fill="white"/>
<path id="Vector_5" d="M11.1393 49.2529H13.5353V57.7176C13.5353 57.8666 13.476 58.0095 13.3703 58.1149C13.2646 58.2202 13.1212 58.2794 12.9717 58.2794H11.7029C11.5534 58.2794 11.4101 58.2202 11.3044 58.1149C11.1987 58.0095 11.1393 57.8666 11.1393 57.7176V49.2529Z" fill="white"/>
<path id="Vector_6" d="M42.0698 49.2529H44.4659V57.7176C44.4659 57.8666 44.4065 58.0095 44.3008 58.1149C44.1951 58.2202 44.0518 58.2794 43.9023 58.2794H42.6334C42.484 58.2794 42.3406 58.2202 42.2349 58.1149C42.1292 58.0095 42.0698 57.8666 42.0698 57.7176V49.2529Z" fill="white"/>
<path id="Vector_7" d="M26.6252 51.6941H29.0213V60.1441C29.0213 60.2931 28.9619 60.436 28.8562 60.5413C28.7505 60.6467 28.6072 60.7059 28.4577 60.7059H27.1889C27.0394 60.7059 26.896 60.6467 26.7903 60.5413C26.6846 60.436 26.6252 60.2931 26.6252 60.1441V51.6941Z" fill="white"/>
<path id="Vector_8" d="M26.6252 65.1824H29.0213V73.6324C29.0213 73.7814 28.9619 73.9242 28.8562 74.0296C28.7505 74.1349 28.6072 74.1941 28.4577 74.1941H27.1889C27.0394 74.1941 26.896 74.1349 26.7903 74.0296C26.6846 73.9242 26.6252 73.7814 26.6252 73.6324V65.1824Z" fill="white"/>
<path id="Vector_9" d="M18.6373 57.5029H21.0363V65.9529C21.0363 66.1019 20.977 66.2448 20.8713 66.3502C20.7656 66.4555 20.6222 66.5147 20.4727 66.5147H19.2039C19.0544 66.5147 18.9111 66.4555 18.8054 66.3502C18.6997 66.2448 18.6403 66.1019 18.6403 65.9529V57.5029H18.6373Z" fill="white"/>
<path id="Vector_10" d="M34.5718 57.5029H36.9708V65.9529C36.9708 66.1019 36.9114 66.2448 36.8057 66.3502C36.7 66.4555 36.5567 66.5147 36.4072 66.5147H35.1383C34.9889 66.5147 34.8455 66.4555 34.7398 66.3502C34.6341 66.2448 34.5747 66.1019 34.5747 65.9529V57.5029H34.5718Z" fill="white"/>
</g>
<path id="Vector_11" fill-rule="evenodd" clip-rule="evenodd" d="M28.0682 5.81477V0.170654H26.2092V5.81477H23.8337V0.170654L21.9747 1.74418V7.66771H22.2433H23.8337H26.2092H28.0682H28.8826V5.81477H28.0682Z" fill="#114D99"/>
<path id="Vector_12" fill-rule="evenodd" clip-rule="evenodd" d="M34.976 2.0236L37.1655 0.170654H31.8009L29.9419 1.74418V2.0236V7.66771H30.535H31.8009H34.976V5.81477H31.8009V4.75301H34.976V2.90007H31.8009V2.0236H34.976Z" fill="#114D99"/>
<path id="Vector_13" fill-rule="evenodd" clip-rule="evenodd" d="M45.3894 0.170654L43.1881 2.0236H44.7727V7.66771H46.6347V2.0236H48.2193L50.4206 0.170654H45.3894Z" fill="#114D99"/>
<path id="Vector_14" fill-rule="evenodd" clip-rule="evenodd" d="M12.9895 8.45V2.43235L12.9924 0H12.9895L11.1305 1.57353L9.87045 2.63824V0L8.01143 1.57353L0.714056 7.75294L0.6875 10.2088L7.98193 4.02941L7.95242 6.69118L11.1305 4.00588V8.45V10.3029H12.9895H54.5901V8.45H12.9895Z" fill="#114D99"/>
<path id="Vector_15" fill-rule="evenodd" clip-rule="evenodd" d="M19.8531 0.170433L19.0534 0.164551L14.0429 4.40279L14.0164 6.85867L19.0534 2.59984V2.5969V4.57632H18.2006L16.0082 6.4322H19.0534V7.66749H20.9154V6.4322V4.57632V0.170433H19.8531Z" fill="#114D99"/>
<path id="Vector_16" fill-rule="evenodd" clip-rule="evenodd" d="M53.5308 0.170433L52.7311 0.164551L47.7206 4.40279L47.6941 6.85867L52.7282 2.59984L52.7311 2.5969V4.57632H51.8784L49.6859 6.4322H52.7311V7.66749H54.5902V6.4322V4.57632V0.170433H53.5308Z" fill="#114D99"/>
<path id="Vector_17" fill-rule="evenodd" clip-rule="evenodd" d="M41.3262 5.36473C41.043 5.59124 40.7008 5.73231 40.3399 5.7713C39.979 5.81029 39.6144 5.74557 39.2891 5.58478C38.9639 5.424 38.6916 5.17384 38.5043 4.86384C38.317 4.55383 38.2226 4.19691 38.2322 3.83518C38.2418 3.47344 38.355 3.12198 38.5584 2.82227C38.7618 2.52255 39.047 2.28708 39.3803 2.14364C39.7136 2.00019 40.0812 1.95476 40.4395 2.0127C40.7979 2.07063 41.1322 2.22952 41.4029 2.47061L42.8724 1.24708C42.3596 0.718617 41.7037 0.350163 40.9846 0.186585C40.2655 0.0230071 39.5142 0.0713638 38.8221 0.325765C38.1301 0.580167 37.5272 1.02964 37.0869 1.61945C36.6465 2.20925 36.3878 2.91395 36.342 3.64773C36.2963 4.38151 36.4656 5.11271 36.8294 5.75229C37.1931 6.39187 37.7356 6.91224 38.3907 7.25004C39.0458 7.58783 39.7854 7.72848 40.5193 7.65484C41.2532 7.58121 41.9498 7.29648 42.5242 6.83532L41.3262 5.36473Z" fill="#114D99"/>
<path id="Vector_18" d="M54.5902 11.6177H0V75.8177C-5.31595e-06 77.8786 0.820176 79.8554 2.28061 81.3144C3.74104 82.7734 5.72246 83.5953 7.79016 83.6H22.1193C23.186 83.5899 24.2185 83.9745 25.0171 84.6794L25.1321 84.7853C25.9895 85.6133 26.5653 86.6881 26.7787 87.8588L27.0915 89.5647H28.5669L28.8797 87.8588C29.088 86.6864 29.6597 85.6084 30.5144 84.7765L30.6295 84.6706C31.428 83.9657 32.4606 83.581 33.5272 83.5912H47.8564C49.9236 83.5889 51.9055 82.7695 53.3675 81.3128C54.8295 79.8562 55.6523 77.8811 55.6554 75.8206V11.6177H54.5902ZM54.5902 75.8177C54.5902 77.5977 53.8807 79.3049 52.6179 80.5636C51.3551 81.8223 49.6423 82.5294 47.8564 82.5294H33.5272C32.1991 82.5213 30.9145 83.0008 29.9184 83.8765L29.7797 84.0059C28.761 84.989 28.0769 86.2654 27.8233 87.6559C27.5697 86.2654 26.8855 84.989 25.8669 84.0059L25.7282 83.8765C24.7321 83.0008 23.4475 82.5213 22.1193 82.5294H7.79016C6.00426 82.5294 4.2915 81.8223 3.02867 80.5636C1.76584 79.3049 1.05639 77.5977 1.05639 75.8177V12.6765H54.5902V75.8177Z" fill="#114D99"/>
</g>
</svg>
