<svg width="96" height="96" viewBox="0 0 96 96" fill="none" xmlns="http://www.w3.org/2000/svg">
<rect width="96" height="96" rx="24" fill="#658A88"/>
<path d="M43.5846 32.9614L45.0449 35.578C46.3627 37.9393 45.8337 41.037 43.7581 43.1126C43.7581 43.1126 43.7581 43.1126 43.7581 43.1126C43.758 43.1127 41.2406 45.6303 45.8052 50.1948C50.369 54.7587 52.8866 52.2427 52.8874 52.2419C52.8875 52.2419 52.8875 52.2419 52.8875 52.2419C54.963 50.1663 58.0607 49.6373 60.422 50.9551L63.0386 52.4154C66.6043 54.4054 67.0254 59.4058 63.8912 62.5399C62.008 64.4232 59.7009 65.8886 57.1506 65.9853C52.8572 66.148 45.5661 65.0615 38.2523 57.7477C30.9385 50.4339 29.852 43.1428 30.0147 38.8494C30.1114 36.2991 31.5768 33.992 33.4601 32.1088C36.5942 28.9746 41.5946 29.3957 43.5846 32.9614Z" fill="white"/>
<path d="M50.8338 25.2296C50.9828 24.3096 51.8525 23.6855 52.7725 23.8345C52.8295 23.8454 53.0127 23.8796 53.1087 23.901C53.3007 23.9438 53.5685 24.0096 53.9024 24.1068C54.5702 24.3013 55.503 24.6218 56.6226 25.1351C58.8643 26.1628 61.8474 27.9605 64.9429 31.0561C68.0385 34.1516 69.8362 37.1347 70.8639 39.3763C71.3772 40.496 71.6976 41.4288 71.8921 42.0966C71.9894 42.4305 72.0552 42.6983 72.098 42.8903C72.1194 42.9863 72.135 43.0634 72.1459 43.1203L72.1588 43.1905C72.3078 44.1105 71.6894 45.0162 70.7694 45.1651C69.852 45.3136 68.9878 44.6926 68.8351 43.7769C68.8304 43.7523 68.8176 43.6862 68.8037 43.6239C68.7759 43.4993 68.7279 43.3017 68.6518 43.0404C68.4995 42.5176 68.2351 41.7406 67.796 40.7829C66.9188 38.8697 65.3416 36.2277 62.5564 33.4426C59.7712 30.6574 57.1293 29.0801 55.2161 28.203C54.2583 27.7639 53.4813 27.4995 52.9586 27.3472C52.6972 27.2711 52.3688 27.1957 52.2441 27.1679C51.3284 27.0153 50.6853 26.147 50.8338 25.2296Z" fill="white"/>
<path fill-rule="evenodd" clip-rule="evenodd" d="M51.3429 32.9909C51.5989 32.0948 52.5329 31.5759 53.4291 31.8319L52.9655 33.4545C53.4291 31.8319 53.4291 31.8319 53.4291 31.8319L53.4323 31.8329L53.4358 31.8339L53.4433 31.8361L53.4607 31.8413L53.5052 31.8551C53.5391 31.866 53.5815 31.8801 53.632 31.898C53.7331 31.9339 53.8666 31.9849 54.0305 32.0551C54.3582 32.1956 54.8061 32.4125 55.3563 32.7381C56.4576 33.3899 57.961 34.4726 59.7272 36.2387C61.4934 38.0049 62.576 39.5084 63.2278 40.6096C63.5534 41.1598 63.7704 41.6077 63.9108 41.9355C63.981 42.0993 64.032 42.2328 64.0679 42.3339C64.0858 42.3844 64.1 42.4268 64.1108 42.4607L64.1247 42.5052L64.1299 42.5227L64.1321 42.5302L64.1331 42.5336C64.1331 42.5336 64.134 42.5369 62.5114 43.0005L64.134 42.5369C64.39 43.433 63.8711 44.367 62.975 44.623C62.0865 44.8769 61.1607 44.3689 60.8955 43.4868L60.8872 43.4625C60.8752 43.4287 60.8504 43.3622 60.8087 43.265C60.7255 43.0707 60.5745 42.7529 60.3234 42.3286C59.8217 41.4809 58.9156 40.2001 57.3407 38.6252C55.7658 37.0503 54.485 36.1442 53.6373 35.6426C53.213 35.3914 52.8952 35.2405 52.701 35.1572C52.6038 35.1155 52.5372 35.0907 52.5034 35.0787L52.4791 35.0704C51.597 34.8052 51.089 33.8794 51.3429 32.9909Z" fill="white"/>
</svg>
