<svg width="140" height="45" viewBox="0 0 140 45" fill="none" xmlns="http://www.w3.org/2000/svg">
<g clip-path="url(#clip0_494_7601)">
<path d="M133.561 16.5549H139.984C139.172 10.3552 134.606 7.09644 128.259 7.09644C121.836 7.09644 117.541 10.4745 117.541 16.2767C117.541 22.8737 123.074 24.344 126.015 24.9404C129.807 25.6954 133.522 25.7749 133.522 29.113C133.522 31.3783 131.665 32.4911 129.034 32.4911C125.783 32.4911 123.616 30.8219 123.074 27.8018H116.728C117.115 34.3193 121.72 37.8164 128.492 37.8164C134.76 37.8164 139.907 34.8757 139.907 28.517C139.907 21.6814 133.987 20.4495 129.846 19.8136C127.021 19.3765 123.926 18.9791 123.926 15.919C123.926 13.773 125.512 12.4616 128.182 12.4616C131.278 12.4616 133.135 14.25 133.561 16.5549Z" fill="#6A8095"/>
<path d="M113.207 8.09009H107.132V36.9024H113.207V8.09009Z" fill="#6A8095"/>
<path d="M88.7903 26.8477H96.7229C95.4846 29.9477 92.6984 31.4179 89.4867 31.4179C83.8374 31.4179 81.2061 26.9272 81.2061 22.4762C81.2061 17.9854 83.6825 13.4152 89.4482 13.4152C92.9694 13.4152 95.6005 15.0844 96.6067 18.0649L103.146 18.0649C102.024 11.3488 96.2972 7.4939 89.5256 7.4939C81.1674 7.4939 74.8987 13.3357 74.8987 22.5557C74.8987 31.8949 81.7089 37.4189 89.4867 37.4189C97.1485 37.4189 103.146 32.2924 103.146 24.2646V21.9198H88.7903V26.8477Z" fill="#6A8095"/>
<path d="M61.007 7.4939C54.0419 7.4939 48.8953 11.9845 48.9341 19.4559H55.2028C55.1253 16.1971 57.1374 13.2166 60.6974 13.2166C63.7931 13.2166 65.6118 15.4421 65.6118 17.9854C65.6118 20.5289 63.7931 21.9596 60.4265 23.5096C55.8218 25.6158 52.5328 26.967 49.1662 28.1593V36.9023H72.6157V31.0205H56.5174C56.5174 31.0205 56.571 31.0034 56.5973 30.9952C59.3355 30.1431 61.3925 29.2173 63.8318 28.1195C69.0556 25.7351 72.0352 22.7544 72.0352 17.6676C72.0352 11.4281 67.5466 7.4939 61.007 7.4939Z" fill="#6A8095"/>
<path d="M32.4499 26.7684C24.556 26.8082 23.2791 31.6963 22.8535 35.8294L22.6601 37.6574H21.0734L20.88 35.8294C20.4544 31.6963 19.1388 26.8082 11.5157 26.7684C10.2388 24.0659 9.69704 21.8802 9.69704 19.4162C9.69704 13.2564 14.6114 7.49381 21.886 7.49381C29.1607 7.49381 33.9977 13.2165 33.9977 19.4561C33.9977 21.8802 33.7655 24.0659 32.4499 26.7684ZM21.8087 0.0224609C9.81323 0.0224609 -0.0155029 10.1168 -0.0155029 22.4761C-0.0155029 34.8756 9.81323 44.9697 21.8087 44.9697C33.9202 44.9697 43.7103 34.8756 43.7103 22.4761C43.7103 10.1168 33.9202 0.0224609 21.8087 0.0224609Z" fill="#29B24A"/>
</g>
<defs>
<clipPath id="clip0_494_7601">
<rect width="140" height="44.9474" fill="white"/>
</clipPath>
</defs>
</svg>
