<svg width="96" height="96" viewBox="0 0 96 96" fill="none" xmlns="http://www.w3.org/2000/svg">
<rect width="96" height="96" rx="48" fill="#33AADE"/>
<path fill-rule="evenodd" clip-rule="evenodd" d="M26.4301 45.9949C38.1871 40.6617 46.0139 37.118 49.9442 35.3987C61.1301 30.5217 63.4815 29.6796 64.9931 29.6445C65.3291 29.6445 66.0681 29.7147 66.5719 30.1357C66.975 30.4866 67.0758 30.9427 67.143 31.2936C67.2102 31.6445 67.2774 32.3813 67.2102 32.9427C66.6055 39.6091 63.9854 55.784 62.6417 63.2224C62.0707 66.3802 60.9622 67.4328 59.8872 67.5381C57.5358 67.7486 55.7555 65.9241 53.5048 64.3803C49.9441 61.9593 47.9622 60.4506 44.5023 58.0647C40.5049 55.3279 43.0915 53.8192 45.3757 51.3631C45.9804 50.7316 56.2929 40.9073 56.4945 40.0302C56.5281 39.9249 56.5281 39.5039 56.2929 39.2933C56.0578 39.0828 55.7219 39.153 55.4532 39.2232C55.0836 39.2933 49.4403 43.223 38.4559 50.9772C36.8435 52.135 35.399 52.6964 34.089 52.6613C32.6445 52.6263 29.89 51.8193 27.8073 51.1175C25.288 50.2755 23.2725 49.8193 23.4405 48.3457C23.5412 47.5738 24.549 46.8019 26.4301 45.9949Z" fill="white"/>
</svg>
