<svg width="96" height="96" viewBox="0 0 96 96" fill="none" xmlns="http://www.w3.org/2000/svg">
<rect width="96" height="96" rx="24" fill="#26D044"/>
<path fill-rule="evenodd" clip-rule="evenodd" d="M65.9503 30.0312C61.1874 25.2855 54.8534 22.6709 48.1051 22.668C34.2001 22.668 22.883 33.9302 22.8774 47.773C22.8757 52.1979 24.0371 56.517 26.2449 60.3247L22.666 73.3346L36.0394 69.8434C39.7242 71.8435 43.8727 72.8979 48.0949 72.8993H48.1053C62.0088 72.8993 73.3269 61.6357 73.3327 47.7926C73.3351 41.0845 70.7132 34.7766 65.9503 30.0312ZM48.1053 68.6593H48.0968C44.3344 68.6578 40.6441 67.6517 37.4249 65.7504L36.6591 65.2984L28.7231 67.37L30.8413 59.6696L30.3428 58.8797C28.244 55.5575 27.1352 51.7175 27.1369 47.7742C27.1415 36.2687 36.5477 26.9083 48.1138 26.9083C53.7141 26.9102 58.9789 29.0836 62.9377 33.0282C66.8965 36.9727 69.0751 42.2155 69.0729 47.7914C69.0683 59.2978 59.6622 68.6593 48.1053 68.6593ZM59.6066 53.0301C58.9763 52.7163 55.8774 51.1986 55.2995 50.9892C54.7219 50.7802 54.3015 50.6754 53.8813 51.3034C53.4612 51.9315 52.2529 53.3444 51.8852 53.7632C51.5175 54.1816 51.1497 54.2343 50.5196 53.92C49.889 53.6062 47.8582 52.9436 45.4504 50.8063C43.5766 49.1429 42.3116 47.0887 41.9438 46.4604C41.5761 45.8323 41.9045 45.4929 42.2203 45.1801C42.5038 44.899 42.8506 44.4472 43.1659 44.081C43.4812 43.7148 43.5861 43.453 43.7963 43.0344C44.0065 42.6157 43.9014 42.2493 43.7436 41.9355C43.5861 41.6212 42.3254 38.5334 41.8001 37.2773C41.2885 36.0542 40.7688 36.2197 40.3819 36.2004C40.0147 36.1823 39.5941 36.1782 39.1737 36.1782C38.7535 36.1782 38.0707 36.3352 37.4928 36.9632C36.9152 37.5913 35.2867 39.109 35.2867 42.1969C35.2867 45.2847 37.5453 48.2675 37.8606 48.6864C38.1756 49.105 42.3055 55.4413 48.6286 58.1589C50.1323 58.8053 51.3065 59.1911 52.2221 59.4805C53.7323 59.958 55.1063 59.8904 56.1923 59.729C57.4034 59.5488 59.9217 58.2113 60.4469 56.746C60.9721 55.2805 60.9721 54.0244 60.8146 53.7627C60.6571 53.5014 60.2369 53.3444 59.6066 53.0301Z" fill="white"/>
</svg>
